<svg xmlns="http://www.w3.org/2000/svg" xmlns:xlink="http://www.w3.org/1999/xlink" width="40" height="40" viewBox="0 0 100 100">
  <circle stroke="none" fill="#521ed8" r="48%" cx="50%" cy="50%"></circle>
  <g transform="translate(50 50) scale(1.2 1.2) rotate(0) translate(-30 -32)" style="fill:#ffffff">
      <path d="M13.333 2.667c-2.946 0-5.333 2.4-5.333 5.333v48c0 2.933 2.388 5.333 5.333 5.333h37.333c2.947 0 5.333-2.4 5.333-5.333v-37.333l-16-16h-5.333v2.667h-2.667v2.667h2.667v2.667h-2.667v2.667h2.667v2.667h-2.667v2.667h2.667v2.667h-2.667v2.667h2.667v2.667h-2.667v2.667h2.667c0 1.333-1.195 2.667-2.667 2.667 2.947 0 5.333 2.4 5.333 5.333v10.667c0 2.933-2.387 5.333-5.333 5.333s-5.333-2.4-5.333-5.333v-10.667c0-2.933 2.387-5.333 5.333-5.333v-2.667h-2.667v-2.667h2.667v-2.667h-2.667v-2.667h2.667v-2.667h-2.667v-2.667h2.667v-2.667h-2.667v-2.667h2.667v-2.667h-2.667v-2.667h2.667v-2.667h-18.667zM32 34.667c-1.472 0-2.667 1.067-2.667 2.667 0 1.333 1.195 2.667 2.667 2.667s2.667-1.333 2.667-2.667c0-1.6-1.195-2.667-2.667-2.667zM32 42.667c-1.472 0-2.667 1.067-2.667 2.667v2.667c0 1.333 1.195 2.667 2.667 2.667s2.667-1.333 2.667-2.667v-2.667c0-1.6-1.195-2.667-2.667-2.667z"></path>
  </g>
</svg>