<svg xmlns="http://www.w3.org/2000/svg" xmlns:xlink="http://www.w3.org/1999/xlink" width="40" height="40" viewBox="0 0 100 100">
  <circle stroke="none" fill="#121466" r="48%" cx="50%" cy="50%"></circle>
  <g transform="translate(50 50) scale(0.69 0.69) rotate(0) translate(-50 -50)" style="fill:#ffffff">
      <path d="M82.3,16.1c4.2,0,7.7-3.4,7.7-7.7s-3.4-7.7-7.7-7.7c-4.2,0-7.7,3.4-7.7,7.7c0,2.8,1.5,5.2,3.7,6.5L76,25     c-1.9,0.1-3.7,0.8-5,2.1l-9.9-6.8c0.3-0.7,0.5-1.4,0.5-2.2c0-3.1-2.5-5.6-5.6-5.6S50.5,15,50.5,18c0,1.5,0.6,2.8,1.5,3.8l-3,10.3     c0,0.2,0,0.3,0,0.5c-0.5,0-1-0.1-1.6-0.1c-3.2,0-6.3,0.5-8.9,1.4l0,0l-5.7-3.3c0.5-1.2,0.7-2.4,0.7-3.8c0-5.6-4.6-10.2-10.2-10.2     c-1.9,0-3.7,0.5-5.2,1.4l-6.7-6.5c0.4-0.8,0.7-1.7,0.7-2.6c0-3.1-2.5-5.6-5.6-5.6S0.9,5.9,0.9,9s2.5,5.6,5.6,5.6     c0.8,0,1.6-0.2,2.2-0.5l6.6,6.4c-1.4,1.8-2.3,4-2.3,6.4c0,3.2,1.5,6.1,3.8,8l-7,11.8c-0.1,0-0.3,0-0.4,0c-3.7,0-6.8,3-6.8,6.8     s3,6.8,6.8,6.8c0.7,0,1.4-0.1,2.1-0.4c0.1,0.2,0.1,0.3,0.3,0.4l6.7,7.3c-1,1.5-1.7,3.2-1.7,5.1c0,4.9,4,8.9,8.9,8.9     c3.1,0,5.8-1.6,7.4-4l27.6,3.9c0.8,5.1,5.2,9,10.5,9c5.9,0,10.6-4.8,10.6-10.6S77,69.3,71.2,69.3c-5.1,0-9.4,3.7-10.4,8.5     l-26.4-3.7c0.1-0.4,0.1-0.9,0.1-1.3c0-4.9-4-8.9-8.9-8.9c-1.7,0-3.2,0.5-4.5,1.3L14.5,58c1-1.2,1.7-2.7,1.7-4.4     c0-2.3-1.1-4.3-2.8-5.5l6.7-11.3c1,0.3,2.1,0.5,3.2,0.5c3,0,5.7-1.3,7.5-3.3l3.7,2.2c-0.8,0.5-1.5,1-2.1,1.7     c-0.4,0.3-0.6,0.8-0.6,1.3c0,0.1,0,0.2,0,0.2c0,0.1,0,0.1,0,0.2v21.8l0,0c0,0.2,0,0.5,0.1,0.7s0.2,0.4,0.4,0.6l0,0     c3.2,3.1,8.8,5,15,5s11.8-1.9,15-5l0,0c0.2-0.2,0.3-0.4,0.4-0.6c0.1-0.2,0.1-0.5,0.1-0.7l0,0V47.5l12.8,3.3c0.3,2.8,2.7,5,5.5,5     c3.1,0,5.6-2.5,5.6-5.6s-2.5-5.6-5.6-5.6c-2,0-3.7,1-4.7,2.6l-15-3.9c-0.1,0-0.1,0-0.2,0c-0.1,0-0.2-0.1-0.3-0.1     c-1,0-1.8,0.8-1.8,1.8v0.4c-2.6,2.2-7.1,3.5-11.9,3.5s-9.3-1.3-11.9-3.5v-3c3.2,1.8,7.4,2.8,11.9,2.8c6.2,0,11.8-1.9,15-5     c0.4-0.3,0.6-0.8,0.6-1.3s-0.2-1-0.6-1.3c-2.3-2.2-5.8-3.8-9.8-4.5l2.7-9.5c0.3,0,0.5,0.1,0.8,0.1c0.9,0,1.8-0.3,2.6-0.7     l10.4,7.2c-0.3,0.8-0.5,1.6-0.5,2.5c0,4.2,3.4,7.7,7.7,7.7c4.2,0,7.7-3.4,7.7-7.7c0-3-1.8-5.6-4.3-6.9l2.1-9.7     C81.9,16.1,82.1,16.1,82.3,16.1z M71.3,73c3.8,0,6.9,3.1,6.9,6.9s-3.1,6.9-6.9,6.9s-6.9-3.1-6.9-6.9S67.5,73,71.3,73z M6.4,53.5     c0-1.7,1.4-3.1,3.1-3.1s3.1,1.4,3.1,3.1s-1.4,3.1-3.1,3.1S6.4,55.2,6.4,53.5z M31,72.8c0,2.9-2.3,5.2-5.2,5.2s-5.2-2.3-5.2-5.2     c0-2.9,2.3-5.2,5.2-5.2S31,69.9,31,72.8z M4.6,9c0-1.1,0.9-1.9,1.9-1.9S8.4,7.9,8.4,9s-0.9,1.9-1.9,1.9S4.6,10,4.6,9z M23.3,33.5     c-3.6,0-6.6-2.9-6.6-6.6c0-3.6,2.9-6.6,6.6-6.6s6.6,2.9,6.6,6.6C29.9,30.5,26.9,33.5,23.3,33.5z M35.5,60.3v-3     c3.2,1.8,7.4,2.8,11.9,2.8s8.7-1,11.9-2.8v3c-2.6,2.2-7.1,3.5-11.9,3.5C42.6,63.9,38.1,62.5,35.5,60.3z M81.3,48.3     c1.1,0,1.9,0.9,1.9,1.9c0,1.1-0.9,1.9-1.9,1.9s-1.9-0.9-1.9-1.9C79.3,49.1,80.2,48.3,81.3,48.3z M47.4,52.7c4.5,0,8.7-1,11.9-2.8     v3c-2.6,2.2-7.1,3.5-11.9,3.5s-9.3-1.3-11.9-3.5v-3C38.7,51.7,42.9,52.7,47.4,52.7z M47.4,41.6c-4.2,0-8.1-1-10.7-2.7     c2.7-1.7,6.6-2.7,10.7-2.7c4.2,0,8.1,1,10.7,2.7C55.5,40.6,51.6,41.6,47.4,41.6z M54.1,18c0-1.1,0.9-1.9,1.9-1.9s2,0.9,2,1.9     s-0.9,2-2,2S54.1,19.1,54.1,18z M76.3,36.7c-2.2,0-4-1.8-4-4s1.8-4,4-4c0.3,0,0.5,0,0.8,0.1l0,0l0,0c1.8,0.4,3.2,2,3.2,3.9     C80.3,34.9,78.5,36.7,76.3,36.7z M82.3,4.4c2.2,0,4,1.8,4,4s-1.8,4-4,4s-4-1.8-4-4S80,4.4,82.3,4.4z"></path>
  </g>
</svg>