<svg xmlns="http://www.w3.org/2000/svg" xmlns:xlink="http://www.w3.org/1999/xlink" width="40" height="40" viewBox="0 0 100 100">
  <circle stroke="none" fill="#7f8b05" r="48%" cx="50%" cy="50%"></circle>
  <g transform="translate(150 150) scale(1 1) rotate(0) translate(-133 -130)" style="fill:#ffffff">
      <title>Finance 1</title>
      <path d="M30.11,36.94a2,2,0,0,0-4,0,6.45,6.45,0,0,0,6.39,6.45v.36a2,2,0,0,0,4,0v-.36a6.45,6.45,0,0,0,0-12.89V25.62a2.45,2.45,0,0,1,2.39,2.44,2,2,0,1,0,4,0,6.45,6.45,0,0,0-6.39-6.45v-.36a2,2,0,0,0-4,0v.36a6.45,6.45,0,0,0,0,12.89v4.88A2.45,2.45,0,0,1,30.11,36.94Zm6.39,2.44V34.51a2.44,2.44,0,0,1,0,4.87Zm-4-13.76v4.87a2.44,2.44,0,0,1,0-4.87Z"></path>
      <path d="M6.31,45a2,2,0,0,0,0,4H7.56V60a2,2,0,0,0,2,2H57.68a2,2,0,0,0,2-2V4a2,2,0,0,0-2-2H9.56a2,2,0,0,0-2,2V15H6.31a2,2,0,1,0,0,4H7.56V30H6.31a2,2,0,0,0,0,4H7.56V45Zm5.25-11h1.75A2,2,0,0,0,15,33,19.48,19.48,0,0,0,34.5,52h.56a18,18,0,0,0,3.33-.39,19.49,19.49,0,0,0,0-38.19,17.73,17.73,0,0,0-3.31-.4H34.5A19.51,19.51,0,0,0,15.07,31.07,2,2,0,0,0,13.31,30H11.56V19h1.75a2,2,0,1,0,0-4H11.56V6H55.68V58H11.56V49h1.75a2,2,0,1,0,0-4H11.56ZM19,32.5A15.51,15.51,0,0,1,34.5,17h.44a14.91,14.91,0,0,1,2.66.31,15.49,15.49,0,0,1,0,30.37,15.24,15.24,0,0,1-2.69.3H34.5A15.5,15.5,0,0,1,19,32.5Z"></path>
  </g>
</svg>