<?xml version="1.0" encoding="UTF-8"?>
<svg width="37" height="37" version="1.1" viewBox="0 0 1200 1200" xmlns="http://www.w3.org/2000/svg">
 <path d="m797.97 905.21c4.3125-1.7852 8-4.8125 10.594-8.6953 2.5977-3.8867 3.9805-8.4492 3.9805-13.121v-566.79c0-6.2656-2.4883-12.27-6.918-16.699-4.4297-4.4297-10.434-6.918-16.699-6.918h-377.86c-6.2656 0-12.27 2.4883-16.699 6.918-4.4297 4.4297-6.918 10.434-6.918 16.699v566.79c0 6.2617 2.4883 12.27 6.918 16.699 4.4258 4.4297 10.434 6.918 16.699 6.918 6.2617-0.003907 12.27-2.4922 16.695-6.918l172.23-172.23 172.23 172.23c3.3008 3.3008 7.5078 5.5508 12.09 6.4648 4.582 0.91016 9.332 0.44141 13.648-1.3477z" fill="#12b0fb"/>
</svg>
