<svg xmlns="http://www.w3.org/2000/svg" xmlns:xlink="http://www.w3.org/1999/xlink" width="40" height="40" viewBox="0 0 100 100">
  <circle stroke="none" fill="#554e8d" r="48%" cx="50%" cy="50%"></circle>
  <g transform="translate(200 200) scale(1.99 1.99) rotate(0) translate(-91 -90)" style="fill:#ffffff">
      <path d="M30.5,8.9c0,-0.663 -0.263,-1.299 -0.732,-1.768c-0.469,-0.469 -1.105,-0.732 -1.768,-0.732c-5.154,0 -18.846,0 -24,0c-0.663,-0 -1.299,0.263 -1.768,0.732c-0.469,0.469 -0.732,1.105 -0.732,1.768c0,3.501 0,10.699 0,14.2c-0,0.663 0.263,1.299 0.732,1.768c0.469,0.469 1.105,0.732 1.768,0.732c5.154,-0 18.846,-0 24,-0c0.663,0 1.299,-0.263 1.768,-0.732c0.469,-0.469 0.732,-1.105 0.732,-1.768l-0,-14.2Zm-1,0l-0,14.2c0,0.398 -0.158,0.779 -0.439,1.061c-0.282,0.281 -0.663,0.439 -1.061,0.439l-24,-0c-0.398,0 -0.779,-0.158 -1.061,-0.439c-0.281,-0.282 -0.439,-0.663 -0.439,-1.061l0,-14.2c-0,-0.398 0.158,-0.779 0.439,-1.061c0.282,-0.281 0.663,-0.439 1.061,-0.439l24,0c0.398,-0 0.779,0.158 1.061,0.439c0.281,0.282 0.439,0.663 0.439,1.061Z"></path>
      <path d="M16,9.64c-3.51,0 -6.36,2.85 -6.36,6.36c0,3.51 2.85,6.36 6.36,6.36c3.51,-0 6.36,-2.85 6.36,-6.36c-0,-3.51 -2.85,-6.36 -6.36,-6.36Zm0,1c2.958,0 5.36,2.402 5.36,5.36c-0,2.958 -2.402,5.36 -5.36,5.36c-2.958,-0 -5.36,-2.402 -5.36,-5.36c0,-2.958 2.402,-5.36 5.36,-5.36Z"></path>
      <path d="M21.474,7.399c-0.188,-0.009 -0.349,-0.123 -0.426,-0.284l-0.002,-0.005l-0.007,-0.015l-0.006,-0.016l-0.002,-0.006c-0.003,-0.009 -0.006,-0.017 -0.009,-0.026l-0.001,-0.005c-0.014,-0.045 -0.021,-0.093 -0.021,-0.142l0,-0.9c0,-1.381 1.119,-2.5 2.5,-2.5c0.409,-0 0.841,-0 1.25,-0c1.381,-0 2.5,1.119 2.5,2.5l0,0.888c0,0.471 -0.5,0.512 -0.5,0.512c-0,0 -5.25,0 -5.25,0l-0.026,-0.001Zm4.776,-0.999l-4.25,0l0,-0.4c0,-0.828 0.672,-1.5 1.5,-1.5l1.25,-0c0.828,-0 1.5,0.672 1.5,1.5l-0,0.4Z"></path>
      <path d="M5.454,8.425c-0.828,-0 -1.5,0.672 -1.5,1.5c0,0.828 0.672,1.5 1.5,1.5c0.828,-0 1.5,-0.672 1.5,-1.5c0,-0.828 -0.672,-1.5 -1.5,-1.5Zm0,1c0.276,-0 0.5,0.224 0.5,0.5c0,0.276 -0.224,0.5 -0.5,0.5c-0.276,-0 -0.5,-0.224 -0.5,-0.5c0,-0.276 0.224,-0.5 0.5,-0.5Z"></path>
      <path d="M16,11.487c-2.491,0 -4.513,2.022 -4.513,4.513c0,2.491 2.022,4.513 4.513,4.513c2.491,-0 4.513,-2.022 4.513,-4.513c-0,-2.491 -2.022,-4.513 -4.513,-4.513Zm0,1c1.939,0 3.513,1.574 3.513,3.513c-0,1.939 -1.574,3.513 -3.513,3.513c-1.939,-0 -3.513,-1.574 -3.513,-3.513c0,-1.939 1.574,-3.513 3.513,-3.513Z"></path>
      <path d="M1.5,12.504c0,0.277 0.224,0.5 0.5,0.5l9.298,0c0.158,0 0.307,-0.074 0.401,-0.201c0.978,-1.312 2.541,-2.163 4.301,-2.163c1.76,0 3.323,0.851 4.301,2.163c0.094,0.127 0.243,0.201 0.401,0.201l9.298,0c0.276,0 0.5,-0.223 0.5,-0.5l-0,-3.604c0,-0.663 -0.263,-1.299 -0.732,-1.768c-0.469,-0.469 -1.105,-0.732 -1.768,-0.732c-5.154,0 -18.846,0 -24,0c-0.663,-0 -1.299,0.263 -1.768,0.732c-0.469,0.469 -0.732,1.105 -0.732,1.768c0,0 0,3.604 0,3.604Zm1,-0.5l0,-3.104c-0,-0.398 0.158,-0.779 0.439,-1.061c0.282,-0.281 0.663,-0.439 1.061,-0.439l24,0c0.398,-0 0.779,0.158 1.061,0.439c0.281,0.282 0.439,0.663 0.439,1.061l-0,3.104c-0,0 -8.554,0 -8.554,0c-1.166,-1.441 -2.949,-2.364 -4.946,-2.364c-1.997,0 -3.78,0.923 -4.947,2.365c0.001,-0.001 -8.553,-0.001 -8.553,-0.001l0,0Z"></path>
      <path d="M24.75,23.141l2.5,0c0.276,0 0.5,-0.224 0.5,-0.5c-0,-0.275 -0.224,-0.5 -0.5,-0.5l-2.5,0c-0.276,0 -0.5,0.225 -0.5,0.5c-0,0.276 0.224,0.5 0.5,0.5Z"></path>
  </g>
</svg>