<svg xmlns="http://www.w3.org/2000/svg" xmlns:xlink="http://www.w3.org/1999/xlink" width="40" height="40" viewBox="0 0 100 100">
  <circle stroke="none" fill="#cd7303" r="48%" cx="50%" cy="50%"></circle>
  <g transform="translate(70 100) scale(1.1 1.1) rotate(0) translate(-50 -80)" style="fill:#ffffff">
      <title>company-Building-bank-Business-office</title>
      <g>
        <polygon points="33 55 35 55 35 57 33 57 33 60 37 60 37 52 33 52 33 55"></polygon>
        <polygon points="27 60 31 60 31 57 29 57 29 55 31 55 31 52 27 52 27 60"></polygon>
        <path d="M22,12c0-.077.01-.152.012-.229L20,11.926V14h2.2A9.983,9.983,0,0,1,22,12Z"></path>
        <rect x="27" y="32" width="2" height="2"></rect>
        <path d="M10,56H20V22H10Zm2-31a1,1,0,0,1,1-1h4a1,1,0,0,1,1,1v4a1,1,0,0,1-1,1H13a1,1,0,0,1-1-1Zm0,8a1,1,0,0,1,1-1h4a1,1,0,0,1,1,1v4a1,1,0,0,1-1,1H13a1,1,0,0,1-1-1Zm0,8a1,1,0,0,1,1-1h4a1,1,0,0,1,1,1v4a1,1,0,0,1-1,1H13a1,1,0,0,1-1-1Zm0,8a1,1,0,0,1,1-1h4a1,1,0,0,1,1,1v4a1,1,0,0,1-1,1H13a1,1,0,0,1-1-1Z"></path>
        <rect x="27" y="40" width="2" height="2"></rect>
        <path d="M22,60h3V51a1,1,0,0,1,1-1H38a1,1,0,0,1,1,1v9h3V48H22Z"></path>
        <path d="M32,20a8,8,0,1,0-8-8A8.009,8.009,0,0,0,32,20Zm-3-6h2v.146a.856.856,0,0,0,.854.854h.292a.854.854,0,0,0,.381-1.618l-1.949-.975A2.844,2.844,0,0,1,31,7.145V6h2V7.145a2.849,2.849,0,0,1,2,2.709V10H33V9.854A.856.856,0,0,0,32.146,9h-.292a.854.854,0,0,0-.381,1.618l1.949.975A2.844,2.844,0,0,1,33,16.855V18H31V16.855a2.849,2.849,0,0,1-2-2.709Z"></path>
        <rect x="10" y="58" width="10" height="2"></rect>
        <rect x="35" y="40" width="2" height="2"></rect>
        <rect x="14" y="50" width="2" height="2"></rect>
        <rect x="14" y="26" width="2" height="2"></rect>
        <rect x="14" y="34" width="2" height="2"></rect>
        <rect x="14" y="42" width="2" height="2"></rect>
        <path d="M44,14V10.08l-2.164.166A9.742,9.742,0,0,1,41.8,14Z"></path>
        <rect x="48" y="50" width="2" height="2"></rect>
        <rect x="44" y="58" width="10" height="2"></rect>
        <path d="M32,22a10.012,10.012,0,0,1-9.159-6H22V46H42V16h-.841A10.012,10.012,0,0,1,32,22ZM31,43a1,1,0,0,1-1,1H26a1,1,0,0,1-1-1V39a1,1,0,0,1,1-1h4a1,1,0,0,1,1,1Zm0-8a1,1,0,0,1-1,1H26a1,1,0,0,1-1-1V31a1,1,0,0,1,1-1h4a1,1,0,0,1,1,1Zm0-8a1,1,0,0,1-1,1H26a1,1,0,0,1-1-1V23h2v3h2V23h2Zm8,16a1,1,0,0,1-1,1H34a1,1,0,0,1-1-1V39a1,1,0,0,1,1-1h4a1,1,0,0,1,1,1Zm0-8a1,1,0,0,1-1,1H34a1,1,0,0,1-1-1V31a1,1,0,0,1,1-1h4a1,1,0,0,1,1,1Zm0-8a1,1,0,0,1-1,1H34a1,1,0,0,1-1-1V23h2v3h2V23h2Z"></path>
        <path d="M44,22V56H54V22Zm8,31a1,1,0,0,1-1,1H47a1,1,0,0,1-1-1V49a1,1,0,0,1,1-1h4a1,1,0,0,1,1,1Zm0-8a1,1,0,0,1-1,1H47a1,1,0,0,1-1-1V41a1,1,0,0,1,1-1h4a1,1,0,0,1,1,1Zm0-8a1,1,0,0,1-1,1H47a1,1,0,0,1-1-1V33a1,1,0,0,1,1-1h4a1,1,0,0,1,1,1Zm0-8a1,1,0,0,1-1,1H47a1,1,0,0,1-1-1V25a1,1,0,0,1,1-1h4a1,1,0,0,1,1,1Z"></path>
        <rect x="48" y="34" width="2" height="2"></rect>
        <rect x="48" y="26" width="2" height="2"></rect>
        <rect x="48" y="42" width="2" height="2"></rect>
        <rect x="35" y="32" width="2" height="2"></rect>
      </g>
  </g>
</svg>