<svg xmlns="http://www.w3.org/2000/svg" xmlns:xlink="http://www.w3.org/1999/xlink" width="40" height="40" viewBox="0 0 100 100">
  <circle stroke="none" fill="#183d76" r="48%" cx="50%" cy="50%"></circle>
  <g transform="translate(35 35) scale(0.35 0.35) rotate(0) translate(-50 -50)" style="fill:#ffffff">
      <path d="M178.057,17.748H21.943A13.442,13.442,0,0,0,8.516,31.175V136.748a13.442,13.442,0,0,0,13.427,13.427H76v24.077H54.957a4,4,0,1,0,0,8h90.086a4,4,0,0,0,0-8H124V150.175h54.057a13.442,13.442,0,0,0,13.427-13.427V31.175A13.442,13.442,0,0,0,178.057,17.748ZM116,174.252H84V150.175h32Zm67.484-37.5a5.434,5.434,0,0,1-5.427,5.427H21.943a5.434,5.434,0,0,1-5.427-5.427V31.175a5.434,5.434,0,0,1,5.427-5.427H178.057a5.434,5.434,0,0,1,5.427,5.427Z"></path>
      <path d="M170.7,34.532H29.3a4,4,0,0,0-4,4v90.859a4,4,0,0,0,4,4H170.7a4,4,0,0,0,4-4V38.532A4,4,0,0,0,170.7,34.532Zm-4,90.859H33.3V42.532H166.7Z"></path>
  </g>
</svg>