<svg xmlns="http://www.w3.org/2000/svg" xmlns:xlink="http://www.w3.org/1999/xlink" width="40" height="40" viewBox="0 0 100 100">
  <circle stroke="none" fill="#3f0f5d" r="48%" cx="50%" cy="50%"></circle>
  <g transform="translate(50 50) scale(0.69 0.69) rotate(0) translate(-50 -50)" style="fill:#ffffff">
            <path d="M94.7,66.2c-0.3-0.8-0.8-1.4-1.6-1.8L68.4,52.6c-0.5-0.2-1-0.3-1.6-0.3L57.6,53v15.2c0,4.8-3.9,8.7-8.7,8.7     s-8.7-3.9-8.7-8.7V54.4l-23.8,1.9c-1.1,0.1-2.1,0.8-2.6,1.9L5.4,77.8c-0.7,1.5,0,3.3,1.5,4l31.5,15.3c0.4,0.2,0.9,0.3,1.4,0.3     c0.2,0,0.3,0,0.5,0l42.3-7.1c1-0.2,1.8-0.8,2.3-1.7l9.7-20.1C94.9,67.9,94.9,67,94.7,66.2z"></path>
            <path d="M79.8,6c-0.7-0.6-1.7-0.8-2.6-0.6c-5,1.2-8.6,0.2-12.9-1.1c-4.4-1.3-9.5-2.8-16.1-1.1c-1.4,0.3-2.4,1.6-2.4,3l0,62.1     c0,1.7,1.4,3.1,3.1,3.1c1.7,0,3.1-1.4,3.1-3.1V30.5c3.8-0.4,7,0.4,10.5,1.5c3,0.9,6.4,1.9,10.3,1.9c1.8,0,3.7-0.2,5.8-0.7     c1.4-0.3,2.4-1.6,2.4-3V8.4C81,7.5,80.5,6.6,79.8,6z"></path>
  </g>
</svg>