<svg xmlns="http://www.w3.org/2000/svg" xmlns:xlink="http://www.w3.org/1999/xlink" width="40" height="40" viewBox="0 0 100 100">
  <circle stroke="none" fill="#adad8a" r="48%" cx="50%" cy="50%"></circle>
  <g transform="translate(50 45) scale(0.9 0.9) rotate(0) translate(-50 -50)" style="fill:#ffffff">
      <path fill="#ffffff" d="M88.1,70.7L59.8,21.6c-1.8-3.1-5-5-8.6-5c-3.6,0-6.8,1.9-8.6,5L14.2,70.7c-1.8,3.1-1.8,6.8,0,9.9  c1.8,3.1,5,5,8.6,5h56.7c3.6,0,6.8-1.9,8.6-5C89.9,77.5,89.9,73.8,88.1,70.7z M33.7,56.4c3.6-3.6,8-5.9,12.9-6.8  c-3.3,1.7-5.7,5.1-5.7,9.1c0,4,2.3,7.4,5.7,9.1c-4.9-0.9-9.3-3.2-12.9-6.8l-2.3-2.3L33.7,56.4z M51.2,62c-1.8,0-3.3-1.5-3.3-3.3  c0-1.8,1.5-3.3,3.3-3.3c1.8,0,3.3,1.5,3.3,3.3C54.5,60.5,53,62,51.2,62z M55.8,49.6c4.9,0.9,9.3,3.2,12.9,6.8l2.3,2.3L68.7,61  c-3.6,3.6-8,5.9-12.9,6.8c3.3-1.7,5.7-5.1,5.7-9.1C61.5,54.7,59.1,51.3,55.8,49.6z M48.6,25.1c0.8-1.3,2-1.5,2.5-1.5  c0.5,0,1.8,0.1,2.5,1.5l11.8,20.5c-4.4-2.2-9.3-3.5-14.4-3.5c-5.1,0-10,1.2-14.4,3.5L48.6,25.1z M82.1,77.1c-0.3,0.4-1,1.5-2.5,1.5  H22.8c-1.5,0-2.3-1-2.5-1.5s-0.8-1.6,0-2.9l6.1-10.5l2.3,2.3c6,6,14,9.3,22.5,9.3c8.5,0,16.5-3.3,22.5-9.3l2.3-2.3l6.1,10.5  C82.8,75.5,82.3,76.7,82.1,77.1z"></path>
  </g>
</svg>