<svg xmlns="http://www.w3.org/2000/svg" xmlns:xlink="http://www.w3.org/1999/xlink" width="40" height="40" viewBox="0 0 100 100">
  <circle stroke="none" fill="#B3AA00" r="48%" cx="50%" cy="50%"></circle>
  <g transform="translate(50 50) scale(2 2) rotate(0) translate(-16 -1035)" style="fill:#FFFFFF">
        <path style="color-rendering:auto;text-decoration-color:#000000;color:#000000;isolation:auto;mix-blend-mode:normal;shape-rendering:auto;solid-color:#000000;text-decoration-line:none;text-decoration-style:solid;image-rendering:auto;white-space:normal;text-indent:0;text-transform:none;" d="m2.5 1024.4c-0.27613 0-0.49997 0.2239-0.5 0.5v15 1.5h-1.0898c-0.49605 0-0.91016 0.4161-0.91016 0.9121v1.1777c0 0.149 0.0456 0.285 0.11133 0.4102-0.0657 0.1254-0.11133 0.2632-0.11133 0.4121v1.1777c0 0.149 0.0456 0.285 0.11133 0.4102-0.0657 0.1254-0.11133 0.2632-0.11133 0.4121v1.1777c0 0.496 0.41411 0.9102 0.91016 0.9102h6.4785c0.3227 0 0.59925-0.1843 0.76172-0.4434 0.1619 0.2591 0.43706 0.4434 0.75977 0.4434h6.4785c0.49605 0 0.91211-0.4142 0.91211-0.9102v-1.0898h15.199c0.27613 0 0.49997-0.2239 0.5-0.5v-6-15c-0.00003-0.2761-0.22387-0.5-0.5-0.5zm0.5 1h10.5v1h-7c-0.27613 0-0.49997 0.2239-0.5 0.5 0 0.8344-0.66564 1.5-1.5 1.5-0.27613 0-0.49997 0.2239-0.5 0.5v7c0.00003 0.2761 0.22387 0.5 0.5 0.5 0.83436 0 1.5 0.6656 1.5 1.5 0.00003 0.2761 0.22387 0.5 0.5 0.5h7v1h-10.5zm11.5 0h5v20h-3.1992v-1.0879c0-0.496-0.41606-0.9121-0.91211-0.9121h-0.88867zm6 0h10.5v14h-10.5v-1h7c0.27613 0 0.49997-0.2239 0.5-0.5 0-0.8344 0.66564-1.5 1.5-1.5 0.27613 0 0.49997-0.2239 0.5-0.5v-7c-0.00003-0.2761-0.22387-0.5-0.5-0.5-0.83436 0-1.5-0.6656-1.5-1.5-0.00003-0.2761-0.22387-0.5-0.5-0.5h-7zm-13.707 2h6.707v1.3457c-0.59325 1.0171-0.94922 2.2762-0.94922 3.6524 0.00001 1.379 0.3539 2.6439 0.94922 3.6621v1.3398h-6.707c-0.21575-0.9225-0.87046-1.5773-1.793-1.793v-6.414c0.92251-0.2157 1.5772-0.8705 1.793-1.793zm13.707 0h6.707c0.21575 0.9225 0.87046 1.5773 1.793 1.793v6.414c-0.92251 0.2157-1.5772 0.8705-1.793 1.793h-6.707v-1.3672l0.0234 0.014c0.58611-1.014 0.92577-2.2769 0.92578-3.6445 0-1.376-0.3562-2.6353-0.94922-3.6524zm-11.699 3.5c-0.8225 0-1.5 0.6775-1.5 1.5s0.6775 1.5 1.5 1.5c0.82251 0 1.5-0.6775 1.5-1.5s-0.67749-1.5-1.5-1.5zm16.398 0c-0.82251 0-1.5 0.6775-1.5 1.5s0.67749 1.5 1.5 1.5c0.8225 0 1.5-0.6775 1.5-1.5s-0.6775-1.5-1.5-1.5zm-11.699 0.7422v1.5234c-0.0275-0.2514-0.0508-0.505-0.0508-0.7675 0-0.2588 0.0241-0.508 0.0508-0.7559zm7 0.018c0.0256 0.2433 0.0508 0.4886 0.0508 0.7422 0 0.2729-0.0212 0.538-0.0508 0.7988zm-11.699 0.2402c0.28207 0 0.5 0.218 0.5 0.5 0 0.2821-0.21793 0.5-0.5 0.5-0.28206 0-0.5-0.2179-0.5-0.5 0-0.282 0.21794-0.5 0.5-0.5zm16.398 0c0.28206 0 0.5 0.218 0.5 0.5 0 0.2821-0.21794 0.5-0.5 0.5-0.28207 0-0.5-0.2179-0.5-0.5 0-0.282 0.21793-0.5 0.5-0.5zm-17.811 9.5h-4.3887v-1h10.5v1h-5.875zm13.111-1h10.5v1h-10.5zm-19.5 2h6.3008v1h-6.3008zm7.3008 0h5.1992v1h-5.1992zm12.199 0h10.5v1h-10.5zm-19.5 2h6.3008v1h-6.3008zm8 0h4.6875 1.6133v1h-6.3008zm11.5 0h10.5v1h-10.5zm-19.5 2h6.3008v1h-6.3008zm8 0h6.3008v1h-6.3008z"></path>
  </g>
</svg>