<?xml version="1.0" encoding="UTF-8"?>
<svg width="40" height="40" version="1.1" viewBox="0 0 1200 1200" xmlns="http://www.w3.org/2000/svg">
 <g>
  <path d="m1200 600c0 214.36-114.36 412.44-300 519.62-185.64 107.18-414.36 107.18-600 0-185.64-107.18-300-305.26-300-519.62s114.36-412.44 300-519.62c185.64-107.18 414.36-107.18 600 0 185.64 107.18 300 305.26 300 519.62" fill="#9a3823"/>
  <path d="m692.58 356.29-83.129 167.01 251.65-226.71c0.75391-23.426 0.75391-37.031 0.75391-37.031h-571.32s0 225.2 28.719 375.59z" fill="#fff"/>
  <path d="m523.3 740.19 49.879-114.11-173.81 175.32c74.059 83.129 177.59 139.05 177.59 139.05s201.78-110.34 243.34-252.41c15.871-55.168 25.695-133 31.738-207.07z" fill="#fff"/>
  <path d="m293.56 716.76 169.28-71.793-125.45 138.3z" fill="#fff"/>
  <path d="m756.06 487.02 153.41-157.19-6.043 85.398z" fill="#fff"/>
 </g>
</svg>
