<svg xmlns="http://www.w3.org/2000/svg" xmlns:xlink="http://www.w3.org/1999/xlink" width="40" height="40" viewBox="0 0 100 100">
  <circle stroke="none" fill="#b98384" r="48%" cx="50%" cy="50%"></circle>
  <g transform="translate(50 50) scale(0.4 0.4) rotate(0) translate(-88 -95)" style="fill:#ffffff">
      <path d="M164.828,59.557V46.263a16.6,16.6,0,0,0-16.577-16.578H136.894V21.622a4,4,0,0,0-4-4H112.729a4,4,0,0,0-4,4v8.063H71.086V21.622a4,4,0,0,0-4-4H46.921a4,4,0,0,0-4,4v8.063H31.564A16.6,16.6,0,0,0,14.987,46.263V145.8a16.6,16.6,0,0,0,16.577,16.577H148.251A16.6,16.6,0,0,0,164.828,145.8V61.835a3.6,3.6,0,0,0,0-2.278Zm-48.1-33.935h12.165v6.924a3.6,3.6,0,0,0,0,2.278v6.33H116.729Zm-65.808,0H63.086V41.154H50.921ZM31.564,37.685H42.921v7.469a4,4,0,0,0,4,4H67.086a4,4,0,0,0,4-4V37.685h37.643v7.469a4,4,0,0,0,4,4h20.165a4,4,0,0,0,4-4V37.685h11.357a8.587,8.587,0,0,1,8.577,8.578V56.7H22.987V46.263A8.587,8.587,0,0,1,31.564,37.685ZM148.251,154.378H31.564a8.587,8.587,0,0,1-8.577-8.577V64.7H156.828v81.1A8.587,8.587,0,0,1,148.251,154.378Z"></path>
      <path d="M83.47,82.162H68.3a4,4,0,1,0,0,8H83.47a4,4,0,0,0,0-8Z"></path>
      <path d="M53.924,82.162H39.915a4,4,0,1,0,0,8H53.924a4,4,0,1,0,0-8Z"></path>
      <path d="M111.855,82.162H96.688a4,4,0,0,0,0,8h15.167a4,4,0,0,0,0-8Z"></path>
      <path d="M140.242,82.162H126.233a4,4,0,0,0,0,8h14.009a4,4,0,0,0,0-8Z"></path>
      <path d="M83.47,105.354H68.3a4,4,0,0,0,0,8H83.47a4,4,0,0,0,0-8Z"></path>
      <path d="M53.924,105.354H39.915a4,4,0,0,0,0,8H53.924a4,4,0,0,0,0-8Z"></path>
      <path d="M111.855,105.354H96.688a4,4,0,0,0,0,8h15.167a4,4,0,0,0,0-8Z"></path>
      <path d="M140.242,105.354H126.233a4,4,0,0,0,0,8h14.009a4,4,0,0,0,0-8Z"></path>
      <path d="M83.47,128.546H68.3a4,4,0,0,0,0,8H83.47a4,4,0,0,0,0-8Z"></path>
      <path d="M53.924,128.546H39.915a4,4,0,1,0,0,8H53.924a4,4,0,1,0,0-8Z"></path>
      <path d="M111.855,128.546H96.688a4,4,0,1,0,0,8h15.167a4,4,0,1,0,0-8Z"></path>
      <path d="M140.242,128.546H126.233a4,4,0,0,0,0,8h14.009a4,4,0,1,0,0-8Z"></path>
  </g>
</svg>