<svg width="40" height="40" id="Layer_1" data-name="Layer 1" xmlns="http://www.w3.org/2000/svg" viewBox="0 0 500 500">
  <defs>
    <style>
      .cls-1,
      .cls-3 {
        fill: #455eff;
      }

      .cls-2 {
        fill: none;
      }

      .cls-2,
      .cls-3 {
        stroke: #fff;
        stroke-linecap: round;
        stroke-miterlimit: 10;
        stroke-width: 16px;
      }

      .cls-4 {
        fill: #fff;
      }
    </style>
  </defs>
  <title>document</title>
  <path class="cls-1" d="M500,250A250,250,0,1,1,0,250C0,111.93,111.93,0,250,0S500,111.93,500,250Z" />
  <path class="cls-2" d="M361.44,196.17V365.44a8.32,8.32,0,0,1-8.56,8.05H169.64a8.32,8.32,0,0,1-8.56-8.05V134.56a8.32,8.32,0,0,1,8.56-8.05h114Z" />
  <rect class="cls-3" x="105.51" y="239.74" width="198.67" height="90.7" rx="10.09" ry="10.09" />
  <path class="cls-4" d="M147.78,268.94H163a23.74,23.74,0,0,1,10.67,2.23,15.77,15.77,0,0,1,6.87,6.42,19.82,19.82,0,0,1,2.39,10,20.25,20.25,0,0,1-2.36,10,15.57,15.57,0,0,1-6.84,6.45A23.85,23.85,0,0,1,163,306.27H147.78Zm14.58,29.46q5.45,0,8.15-2.7t2.7-8.15q0-10.75-10.85-10.75h-4.72v21.6Z" />
  <path class="cls-4" d="M196.53,304.4a15.84,15.84,0,0,1-6.53-6.68,21.61,21.61,0,0,1-2.28-10.17A21.09,21.09,0,0,1,190,277.43a16.13,16.13,0,0,1,6.53-6.63,22.32,22.32,0,0,1,19.87,0,15.81,15.81,0,0,1,6.47,6.63,21.5,21.5,0,0,1,2.25,10.12,21.81,21.81,0,0,1-2.25,10.17,15.72,15.72,0,0,1-6.47,6.68,22.38,22.38,0,0,1-19.9,0Zm16.54-8.15q2.38-3,2.39-8.7t-2.39-8.62a8.78,8.78,0,0,0-13.13,0q-2.36,2.94-2.36,8.65t2.36,8.73a8.73,8.73,0,0,0,13.13,0Z" />
  <path class="cls-4" d="M238.92,304.35a16.37,16.37,0,0,1-6.66-6.74,21,21,0,0,1-2.33-10.07,20.71,20.71,0,0,1,2.33-10,16.42,16.42,0,0,1,6.66-6.71,20.68,20.68,0,0,1,10.14-2.39,23.14,23.14,0,0,1,7.1,1.1,15,15,0,0,1,5.53,3l-3,7a15.9,15.9,0,0,0-9.44-3.3,8.55,8.55,0,0,0-6.92,2.86q-2.41,2.86-2.41,8.47t2.41,8.55a8.51,8.51,0,0,0,6.92,2.88,15.89,15.89,0,0,0,9.44-3.3l3,7a15,15,0,0,1-5.53,3,23.14,23.14,0,0,1-7.1,1.1A20.67,20.67,0,0,1,238.92,304.35Z" />
  <path class="cls-2" d="M279.85,133.6v51.85a17.84,17.84,0,0,0,17.85,17.84l59.93,0" />
</svg>