<svg xmlns="http://www.w3.org/2000/svg" xmlns:xlink="http://www.w3.org/1999/xlink" width="40" height="40" viewBox="0 0 100 100">
  <circle stroke="none" fill="#B30000" r="48%" cx="50%" cy="50%"></circle>
  <g transform="translate(50 50) scale(4 4) rotate(0) translate(-10 -10)" style="fill:#FFFFFF">
      <path d="M10.0157711,1.5 C16.3365269,1.50184279 19.9467184,6.83034265 18.4507929,11.3181189 C17.8994007,12.9722956 16.6928851,14.1908566 15.3653275,14.4956143 C14.2817565,14.7443618 13.3459849,14.3340852 12.8593474,13.4772676 C12.0839125,14.1173239 11.0879213,14.5018911 10.0021096,14.5018911 C7.51682827,14.5018911 5.50210965,12.4871725 5.50210965,10.0018911 C5.50210965,7.51660973 7.51682827,5.50189111 10.0021096,5.50189111 C11.0156703,5.50189111 11.9509662,5.83698207 12.7032572,6.40242376 C12.8837757,6.15938172 13.1745507,6.00189111 13.5021096,6.00189111 C14.0149455,6.00189111 14.4376168,6.3879313 14.4953819,6.88526998 L14.5021096,7.00189111 L14.5021096,12.0018911 C14.5021096,12.5392646 14.5988818,12.6195392 14.9178418,12.5463179 C15.5228968,12.4074198 16.211249,11.7121954 16.5534263,10.6856633 C17.6267819,7.46559671 14.9409642,3.501436 10.0154795,3.5 C9.44564902,3.5 8.87722112,3.57400891 8.31978585,3.72337324 C4.85225618,4.65249501 2.79447,8.21668523 3.72359178,11.6842149 C4.65271355,15.1517446 8.21690377,17.2095308 11.6844334,16.280409 C12.1689779,16.1505757 12.6310103,15.9681372 13.0651315,15.7368394 C13.5525504,15.4771449 14.1582055,15.661752 14.4179001,16.1491709 C14.6775946,16.6365898 14.4929875,17.2422449 14.0055686,17.5019394 C13.437544,17.8045803 12.833687,18.0430198 12.2020715,18.2122606 C7.66760965,19.427266 3.00674552,16.7363149 1.79174012,12.201853 C0.576734725,7.66739111 3.26768589,3.00652698 7.80214776,1.79152158 C8.52934787,1.5966689 9.27181653,1.5 10.0157711,1.5 Z M10.0021096,7.50189111 C8.62139777,7.50189111 7.50210965,8.62117923 7.50210965,10.0018911 C7.50210965,11.382603 8.62139777,12.5018911 10.0021096,12.5018911 C11.3828215,12.5018911 12.5021096,11.382603 12.5021096,10.0018911 C12.5021096,8.62117923 11.3828215,7.50189111 10.0021096,7.50189111 Z" fill="#FFFFFF" fill-rule="nonzero"></path>
  </g>
</svg>