<svg xmlns="http://www.w3.org/2000/svg" xmlns:xlink="http://www.w3.org/1999/xlink" width="40" height="40" viewBox="0 0 100 100">
  <circle stroke="none" fill="#5e8d00" r="48%" cx="50%" cy="50%"></circle>
  <g transform="translate(50 50) scale(0.69 0.69) rotate(0) translate(-35 -50)" style="fill:#ffffff">
      <path class="fil0" d="M33.44 75.97c2.07,-1.52 3.26,-3.96 3.26,-6.53 0,-4.3 -3.35,-8 -7.73,-8 -4.38,0 -7.73,3.7 -7.73,8 0,2.58 1.2,5.04 3.29,6.55l0 12.4 -17.51 0c-0.52,0 -0.96,-0.43 -0.96,-0.95l0 -28.57c0,-3.23 -6.06,-7.99 -6.06,-15.41 0,-10.6 8.59,-19.19 19.19,-19.19 9.36,0 17.24,3.48 19.81,12.09 2.57,-8.61 10.45,-12.09 19.81,-12.09 10.6,0 19.19,8.59 19.19,19.19 0,7.42 -6.06,12.18 -6.06,15.41l0 28.57c0,0.52 -0.44,0.95 -0.96,0.95l-17.46 0 0 -12.43c2.05,-1.52 3.24,-3.95 3.24,-6.52 0,-4.3 -3.35,-8 -7.73,-8 -4.38,0 -7.73,3.7 -7.73,8 0,2.59 1.21,5.05 3.3,6.56l0 12.39 -11.16 0 0 -12.42zm34.92 -65.11l0 10.86 -21.71 0 0 -10.86c0,-14.37 21.71,-14.37 21.71,0zm-15.43 44.33l0 4.32 -8.65 0 0 -4.32c0,-5.72 8.65,-5.72 8.65,0zm-24.02 -4.33c2.39,0 4.32,1.94 4.32,4.33 0,2.39 -1.93,4.32 -4.32,4.32 -2.39,0 -4.33,-1.93 -4.33,-4.32 0,-2.39 1.94,-4.33 4.33,-4.33zm-8.48 -50.86c5.98,0 10.84,4.85 10.84,10.84 0,5.98 -4.86,10.83 -10.84,10.83 -5.98,0 -10.84,-4.85 -10.84,-10.83 0,-5.99 4.86,-10.84 10.84,-10.84z"></path>
  </g>
</svg>