<svg xmlns="http://www.w3.org/2000/svg" xmlns:xlink="http://www.w3.org/1999/xlink" width="40" height="40" viewBox="0 0 100 100">
  <circle stroke="none" fill="#02ef8c" r="48%" cx="50%" cy="50%"></circle>
  <g transform="translate(50 50) scale(1.2 1.2) rotate(0) translate(-31 -31)" style="fill:#ffffff">
      <path d="M37.1,23.1l-2.8,3L25,24.5l-2.3,2.3l7.4,3.9L25,36.3l-4-0.7l-1.2,1.2l4.8,2.5l2.5,4.8l1.2-1.2l-0.7-4l5.6-5.2l3.9,7.4    l2.3-2.3l-1.6-9.4l3-2.8c2-1.8,2.9-4.3,2.4-6.1C41.5,20.2,38.9,21.1,37.1,23.1z"></path>
      <path d="M57,27.9c0.8,0,1.5-0.7,1.5-1.5V14.5c0-0.8-0.7-1.5-1.5-1.5H7c-0.8,0-1.5,0.7-1.5,1.5v11.9c0,0.8,0.7,1.5,1.5,1.5    c2.5,0,4.5,2,4.5,4.5s-2,4.5-4.5,4.5c-0.8,0-1.5,0.7-1.5,1.5v11.1C5.5,50.3,6.2,51,7,51h50c0.8,0,1.5-0.7,1.5-1.5V38.4    c0-0.8-0.7-1.5-1.5-1.5c-2.5,0-4.5-2-4.5-4.5S54.5,27.9,57,27.9z M55.5,39.8V48h-47v-8.2c3.4-0.7,6-3.7,6-7.3s-2.6-6.6-6-7.3v-9    h47v9c-3.4,0.7-6,3.7-6,7.3S52.1,39.1,55.5,39.8z"></path>
  </g>
</svg>