<svg xmlns="http://www.w3.org/2000/svg" xmlns:xlink="http://www.w3.org/1999/xlink" width="40" height="40" viewBox="0 0 100 100">
  <circle stroke="none" fill="#920e60" r="48%" cx="50%" cy="50%"></circle>
  <g transform="translate(50 50) scale(1.5 1.5) rotate(0) translate(-25 -15)" style="fill:#ffffff">
      <path d="M29.0902224,21.0529531 C29.088097,21.0557619 29.0859709,21.0585719 29.083844,21.061383 C36.2883566,21.2931108 41,22.1947661 41,24 C41,26.1274803 34.4561019,27 25,27 C15.5438981,27 9,26.1274803 9,24 C9,22.7653798 11.2038,21.9533949 14.9016381,21.4893027 C12.7690158,21.6992645 10.8087758,21.9728249 9.09326575,22.3022028 C5.26818024,23.0366192 3,24.0662347 3,24.5 C3,24.9337653 5.26818024,25.9633808 9.09326575,26.6977972 C13.4009254,27.5248679 19.2516471,28 25.5,28 C31.7483529,28 37.5990746,27.5248679 41.9067342,26.6977972 C45.7318198,25.9633808 48,24.9337653 48,24.5 C48,24.0662347 45.7318198,23.0366192 41.9067342,22.3022028 C38.4364074,21.6359001 33.9646028,21.1980124 29.0902224,21.0529531 Z M19.4408304,19.1277408 C19.1722533,18.7783611 19.0067556,18.5643298 18.9979156,18.5518805 C16.9298596,15.6394324 16,13.1186096 16,9.60869565 C16,4.31768069 20.0123889,0 25,0 C29.9876122,0 34,4.31767814 34,9.60869565 C34,13.1186096 33.0701404,15.6394324 31.0020844,18.5518805 C30.9935753,18.5638638 30.839917,18.7626203 30.5888936,19.0890794 C42.4354645,19.5158944 51,21.4573715 51,24.5 C51,27.9633759 39.9030095,30 25.5,30 C11.0969905,30 0,27.9633759 0,24.5 C0,21.5410864 8.09972975,19.6235636 19.4408304,19.1277408 Z M22.3886456,23.0305281 C19.3994956,23.1011812 16.6632242,23.2919927 14.525562,23.5770143 C13.5701056,23.7044085 12.7588751,23.8477843 12.1223168,24 C12.7588751,24.1522157 13.5701056,24.2955915 14.525562,24.4229857 C16.9944672,24.752173 20.2618706,24.9556913 23.7951326,24.9935642 C23.4156003,24.4388915 22.9186731,23.7498112 22.3886456,23.0305281 Z M27.6113544,23.0305281 C27.0813269,23.7498112 26.5843997,24.4388915 26.2048674,24.9935642 C29.7381294,24.9556913 33.0055328,24.752173 35.474438,24.4229857 C36.4298944,24.2955915 37.2411249,24.1522157 37.8776832,24 C37.2411249,23.8477843 36.4298944,23.7044085 35.474438,23.5770143 C33.3367758,23.2919927 30.6005044,23.1011812 27.6113544,23.0305281 Z M29.371376,17.3939556 C31.2143318,14.7985167 32,12.6685925 32,9.60869565 C32,5.39081052 28.8489438,2 25,2 C21.1510575,2 18,5.39081294 18,9.60869565 C18,12.6685925 18.7856682,14.7985167 20.628624,17.3939556 C20.625377,17.3893828 23.3498693,20.8988232 25,23.2260356 C26.6501307,20.8988232 29.374623,17.3893828 29.371376,17.3939556 Z M25,13 C22.790861,13 21,11.209139 21,9 C21,6.790861 22.790861,5 25,5 C27.209139,5 29,6.790861 29,9 C29,11.209139 27.209139,13 25,13 Z M25,11 C26.1045695,11 27,10.1045695 27,9 C27,7.8954305 26.1045695,7 25,7 C23.8954305,7 23,7.8954305 23,9 C23,10.1045695 23.8954305,11 25,11 Z"></path>
  </g>
</svg>