<svg xmlns="http://www.w3.org/2000/svg" xmlns:xlink="http://www.w3.org/1999/xlink" width="40" height="40" viewBox="0 0 100 100">
  <circle stroke="none" fill="#B3B3B3" r="48%" cx="50%" cy="50%"></circle>
  <g transform="translate(50 50) scale(0.69 0.69) rotate(0) translate(-50 -50)" style="fill:#FFFFFF">
      <path d="M 50 0 A 10 10 0 0 0 40.09375 8.7207031 A 42.5 42.5 0 0 0 27.820312 13.808594 A 10 10 0 0 0 14.644531 14.644531 A 10 10 0 0 0 13.796875 27.804688 A 42.5 42.5 0 0 0 8.7207031 40.095703 A 10 10 0 0 0 0 50 A 10 10 0 0 0 8.7207031 59.90625 A 42.5 42.5 0 0 0 13.808594 72.179688 A 10 10 0 0 0 14.644531 85.355469 A 10 10 0 0 0 27.804688 86.203125 A 42.5 42.5 0 0 0 40.095703 91.279297 A 10 10 0 0 0 42.929688 97.070312 A 10 10 0 0 0 57.070312 97.070312 A 10 10 0 0 0 59.912109 91.277344 A 42.5 42.5 0 0 0 72.179688 86.189453 A 10 10 0 0 0 78.285156 88.285156 A 10 10 0 0 0 88.285156 78.285156 A 10 10 0 0 0 86.205078 72.191406 A 42.5 42.5 0 0 0 91.279297 59.904297 A 10 10 0 0 0 97.070312 57.070312 A 10 10 0 0 0 97.070312 42.929688 A 10 10 0 0 0 91.277344 40.087891 A 42.5 42.5 0 0 0 86.189453 27.820312 A 10 10 0 0 0 88.285156 21.714844 A 10 10 0 0 0 78.285156 11.714844 A 10 10 0 0 0 72.191406 13.794922 A 42.5 42.5 0 0 0 59.90625 8.7207031 A 10 10 0 0 0 50 0 z M 40.617188 13.4375 A 10 10 0 0 0 47.5 19.669922 L 47.5 40.328125 A 10 10 0 0 0 44.929688 41.394531 L 30.324219 26.789062 A 10 10 0 0 0 30.78125 17.525391 A 37.777778 37.777778 0 0 1 40.617188 13.4375 z M 59.371094 13.451172 A 37.777778 37.777778 0 0 1 69.216797 17.525391 A 10 10 0 0 0 68.285156 21.714844 A 10 10 0 0 0 69.677734 26.787109 L 55.074219 41.390625 A 10 10 0 0 0 52.5 40.330078 L 52.5 19.673828 A 10 10 0 0 0 59.371094 13.451172 z M 26.785156 30.320312 L 41.390625 44.925781 A 10 10 0 0 0 40.330078 47.5 L 19.673828 47.5 A 10 10 0 0 0 13.451172 40.628906 A 37.777778 37.777778 0 0 1 17.523438 30.787109 A 10 10 0 0 0 26.785156 30.320312 z M 73.212891 30.322266 A 10 10 0 0 0 78.285156 31.714844 A 10 10 0 0 0 82.474609 30.78125 A 37.777778 37.777778 0 0 1 86.564453 40.621094 A 10 10 0 0 0 82.929688 42.929688 A 10 10 0 0 0 80.330078 47.5 L 59.671875 47.5 A 10 10 0 0 0 58.605469 44.929688 L 73.212891 30.322266 z M 19.669922 52.5 L 40.328125 52.5 A 10 10 0 0 0 41.394531 55.070312 L 26.789062 69.675781 A 10 10 0 0 0 17.525391 69.21875 A 37.777778 37.777778 0 0 1 13.4375 59.382812 A 10 10 0 0 0 19.669922 52.5 z M 59.669922 52.5 L 80.328125 52.5 A 10 10 0 0 0 82.929688 57.070312 A 10 10 0 0 0 86.548828 59.373047 A 37.777778 37.777778 0 0 1 82.474609 69.216797 A 10 10 0 0 0 78.285156 68.285156 A 10 10 0 0 0 73.212891 69.677734 L 58.609375 55.074219 A 10 10 0 0 0 59.669922 52.5 z M 55.070312 58.605469 L 69.677734 73.212891 A 10 10 0 0 0 68.285156 78.285156 A 10 10 0 0 0 69.216797 82.474609 A 37.777778 37.777778 0 0 1 59.378906 86.564453 A 10 10 0 0 0 57.070312 82.929688 A 10 10 0 0 0 52.5 80.330078 L 52.5 59.671875 A 10 10 0 0 0 55.070312 58.605469 z M 44.925781 58.609375 A 10 10 0 0 0 47.5 59.669922 L 47.5 80.328125 A 10 10 0 0 0 42.929688 82.929688 A 10 10 0 0 0 40.626953 86.548828 A 37.777778 37.777778 0 0 1 30.787109 82.476562 A 10 10 0 0 0 30.320312 73.214844 L 44.925781 58.609375 z " style="opacity:1;fill:#FFFFFF;fill-opacity:1;stroke:none;stroke-width:35.43307114;stroke-linecap:butt;stroke-linejoin:miter;stroke-miterlimit:3;stroke-dasharray:none;stroke-opacity:1"></path>
  </g>
</svg>