<svg width="40" height="40" id="Layer_1" data-name="Layer 1" xmlns="http://www.w3.org/2000/svg" viewBox="0 0 500 500">
  <defs>
    <style>
      .cls-1,
      .cls-3 {
        fill: #0d8c06;
      }

      .cls-2 {
        fill: none;
      }

      .cls-2,
      .cls-3 {
        stroke: #fff;
        stroke-linecap: round;
        stroke-miterlimit: 10;
        stroke-width: 16px;
      }

      .cls-4 {
        fill: #fff;
      }
    </style>
  </defs>
  <title>hash </title>
  <path class="cls-1" d="M500,250A250,250,0,1,1,0,250C0,111.93,111.93,0,250,0S500,111.93,500,250Z" />
  <path class="cls-2" d="M275.94,123.14v39.68c0,7.54,7.45,13.66,16.65,13.65l43.58,0" />
  <path class="cls-2" d="M337.13,177.29V362.55a16.52,16.52,0,0,1-16.52,16.52H166.49A16.52,16.52,0,0,1,150,362.55V137.45a16.52,16.52,0,0,1,16.52-16.52H275.94Z" />
  <rect class="cls-3" x="216.33" y="206.6" width="159.71" height="138.89" rx="11.19" ry="11.19" />
  <path class="cls-4" d="M242.62,262.57q-2.68-3.57-2.68-10.34t2.68-10.2A10.11,10.11,0,0,1,258,242q2.68,3.55,2.68,10.2T258,262.57a10.07,10.07,0,0,1-15.39,0Zm10.32-3.78a19.27,19.27,0,0,0,.8-6.55,18.63,18.63,0,0,0-.8-6.42,2.73,2.73,0,0,0-5.24,0,18.61,18.61,0,0,0-.8,6.42,19.24,19.24,0,0,0,.8,6.55,2.72,2.72,0,0,0,5.24,0Z" />
  <path class="cls-4" d="M285.73,260.14h5.85v5.66H272.81v-5.66h5.81V246.5l-5.43,3.12V243.5l8.36-4.75h4.18Z" />
  <path class="cls-4" d="M303.42,262.57q-2.68-3.57-2.68-10.34t2.68-10.2a10.11,10.11,0,0,1,15.39,0q2.68,3.55,2.68,10.2t-2.68,10.34a10.07,10.07,0,0,1-15.39,0Zm10.32-3.78a19.27,19.27,0,0,0,.8-6.55,18.63,18.63,0,0,0-.8-6.42,2.73,2.73,0,0,0-5.24,0,18.61,18.61,0,0,0-.8,6.42,19.24,19.24,0,0,0,.8,6.55,2.72,2.72,0,0,0,5.24,0Z" />
  <path class="cls-4" d="M346.53,260.14h5.85v5.66H333.61v-5.66h5.81V246.5L334,249.62V243.5l8.36-4.75h4.18Z" />
  <path class="cls-4" d="M255.33,304.13h5.85v5.66H242.41v-5.66h5.81V290.49l-5.43,3.12v-6.12l8.36-4.75h4.18Z" />
  <path class="cls-4" d="M285.73,304.13h5.85v5.66H272.81v-5.66h5.81V290.49l-5.43,3.12v-6.12l8.36-4.75h4.18Z" />
  <path class="cls-4" d="M303.42,306.56q-2.68-3.57-2.68-10.34t2.68-10.2a10.11,10.11,0,0,1,15.39,0q2.68,3.55,2.68,10.2t-2.68,10.34a10.07,10.07,0,0,1-15.39,0Zm10.32-3.78a19.27,19.27,0,0,0,.8-6.55,18.63,18.63,0,0,0-.8-6.42,2.73,2.73,0,0,0-5.24,0,18.61,18.61,0,0,0-.8,6.42,19.24,19.24,0,0,0,.8,6.55,2.72,2.72,0,0,0,5.24,0Z" />
  <path class="cls-4" d="M346.53,304.13h5.85v5.66H333.61v-5.66h5.81V290.49L334,293.61v-6.12l8.36-4.75h4.18Z" />
</svg>