<svg xmlns="http://www.w3.org/2000/svg" xmlns:xlink="http://www.w3.org/1999/xlink" width="40" height="40" viewBox="0 0 100 100">
  <circle stroke="none" fill="#7aa09b" r="48%" cx="50%" cy="50%"></circle>
  <g transform="translate(50 50) scale(2.2 2.2) rotate(0) translate(-14.5 -14.5)" style="fill:#ffffff">
      <path d="M7.94,12.05A4.11,4.11,0,1,0,3.83,7.94,4.11,4.11,0,0,0,7.94,12.05Zm0-6.31a2.2,2.2,0,1,1-2.2,2.2A2.21,2.21,0,0,1,7.94,5.74Z"></path>
      <path d="M27.15,0H2.27A2.27,2.27,0,0,0,0,2.27V27.15a2.27,2.27,0,0,0,2.27,2.27H27.15a2.27,2.27,0,0,0,2.27-2.27V2.27A2.27,2.27,0,0,0,27.15,0ZM2.27,1.91H27.15a.37.37,0,0,1,.36.36V25.48L17.82,11.75l-7.2,10.19-2.82-4L1.91,26.28v-24A.37.37,0,0,1,2.27,1.91Zm9.94,25.6H3.39L7.8,21.26Zm-.42-3.91,6-8.53L26.6,27.51h-12Z"></path>
  </g>
</svg>