<svg width="40" height="40" id="Layer_1" data-name="Layer 1" xmlns="http://www.w3.org/2000/svg" viewBox="0 0 500 500">
  <defs>
    <style>
      .cls-1 {
        fill: #1a1a1a;
      }

      .cls-2 {
        fill: none;
        stroke: #fff;
        stroke-linecap: round;
        stroke-miterlimit: 10;
        stroke-width: 16px;
      }
    </style>
  </defs>
  <title>phrase</title>
  <path class="cls-1" d="M500,250A250,250,0,1,1,0,250C0,111.93,111.93,0,250,0S500,111.93,500,250Z" />
  <path class="cls-2" d="M183.31,363.19h84.31c23.73,0,43.14-18.11,43.14-40.24l0-12.67A10.3,10.3,0,0,1,321.1,300h13.2c23.73,0,43.14-18.11,43.14-40.24V177.06c0-22.13-19.41-40.24-43.14-40.24H165.69c-23.73,0-43.14,18.11-43.14,40.24v82.72c0,22.13,19.41,40.24,43.14,40.24h77.58" />
  <line class="cls-2" x1="177.56" y1="194.94" x2="322.06" y2="194.94" />
  <line class="cls-2" x1="179.73" y1="243.56" x2="264.17" y2="243.56" />
</svg>
