<svg xmlns="http://www.w3.org/2000/svg" xmlns:xlink="http://www.w3.org/1999/xlink" width="40" height="40" viewBox="0 0 100 100">
  <circle stroke="none" fill="#033a66" r="48%" cx="50%" cy="50%"></circle>
  <g transform="translate(50 50) scale(1 1) rotate(0) translate(-32 -32)" style="fill:#ffffff">
      <path d="M60.4792,16.6375H11.9066v-4.4944c0-2.8914-2.3566-5.244-5.2527-5.244H1.7508v3.762h4.9031   c0.8183,0,1.4844,0.665,1.4844,1.4819c-0.1772,47.6766,0,46.9571,0,46.9571h3.7683v-7.5927h18.4172v5.0024   c0,0.5267,0.4145,0.9405,0.9421,0.9405h3.1771v-2.1646c0-0.5527,0.4473-1,1-1s1,0.4473,1,1v2.1646h3.7197v-2.1646   c0-0.5527,0.4473-1,1-1s1,0.4473,1,1v2.1646h3.7197v-2.1646c0-0.5527,0.4473-1,1-1s1,0.4473,1,1v2.1646h3.7197v-2.1646   c0-0.5527,0.4473-1,1-1s1,0.4473,1,1v2.1646h3.1779c0.5181,0,0.9421-0.4138,0.9421-0.9405v-5.0024h2.757   c2.08,0,3.77-1.69,3.77-3.76v-27.34C64.2492,18.3275,62.5592,16.6375,60.4792,16.6375z M20.566,40.7144   c0,1.7519-1.4219,3.1738-3.1739,3.1738h-5.4855v-1.5712v-6.3791v-1.5712h5.4855c1.7519,0,3.1739,1.4219,3.1739,3.1738V40.7144z    M33.9431,40.4186h-2.6104c-0.5527,0-1-0.4473-1-1s0.4473-1,1-1h2.6104c0.5527,0,1,0.4473,1,1S34.4958,40.4186,33.9431,40.4186z    M33.9431,35.069h-2.6104c-0.5527,0-1-0.4473-1-1s0.4473-1,1-1h2.6104c0.5527,0,1,0.4473,1,1S34.4958,35.069,33.9431,35.069z    M33.9431,29.7291h-2.6104c-0.5527,0-1-0.4473-1-1s0.4473-1,1-1h2.6104c0.5527,0,1,0.4473,1,1S34.4958,29.7291,33.9431,29.7291z    M49.363,20.3893c0-0.5527,0.4473-1,1-1s1,0.4473,1,1v2.5996c0,0.5527-0.4473,1-1,1s-1-0.4473-1-1V20.3893z M44.0231,20.3893   c0-0.5527,0.4473-1,1-1s1,0.4473,1,1v2.5996c0,0.5527-0.4473,1-1,1s-1-0.4473-1-1V20.3893z M38.6725,20.3893c0-0.5527,0.4473-1,1-1   s1,0.4473,1,1v2.5996c0,0.5527-0.4473,1-1,1s-1-0.4473-1-1V20.3893z M40.6725,47.7594c0,0.5527-0.4473,1-1,1s-1-0.4473-1-1v-2.6006   c0-0.5527,0.4473-1,1-1s1,0.4473,1,1V47.7594z M46.0231,47.7594c0,0.5527-0.4473,1-1,1s-1-0.4473-1-1v-2.6006   c0-0.5527,0.4473-1,1-1s1,0.4473,1,1V47.7594z M51.363,47.7594c0,0.5527-0.4473,1-1,1s-1-0.4473-1-1v-2.6006c0-0.5527,0.4473-1,1-1   s1,0.4473,1,1V47.7594z M52.1061,40.3922c0,0.4238-0.3447,0.7686-0.7695,0.7686H38.7087c-0.4238,0-0.7686-0.3447-0.7686-0.7686   V27.7555c0-0.4238,0.3447-0.7686,0.7686-0.7686h12.6279c0.4248,0,0.7695,0.3447,0.7695,0.7686V40.3922z M58.7126,40.4186h-2.6094   c-0.5527,0-1-0.4473-1-1s0.4473-1,1-1h2.6094c0.5527,0,1,0.4473,1,1S59.2653,40.4186,58.7126,40.4186z M58.7126,35.069h-2.6094   c-0.5527,0-1-0.4473-1-1s0.4473-1,1-1h2.6094c0.5527,0,1,0.4473,1,1S59.2653,35.069,58.7126,35.069z M58.7126,29.7291h-2.6094   c-0.5527,0-1-0.4473-1-1s0.4473-1,1-1h2.6094c0.5527,0,1,0.4473,1,1S59.2653,29.7291,58.7126,29.7291z"></path>
  </g>
</svg>