<svg xmlns="http://www.w3.org/2000/svg" xmlns:xlink="http://www.w3.org/1999/xlink" width="40" height="40" viewBox="0 0 100 100">
  <circle
     stroke="none"
     fill="#C868FF"
     r="48%"
     cx="50%"
     cy="50%"></circle>
  <g
     transform="translate(50 50) scale(0.69 0.69) rotate(0) translate(-50 -50)"
     style="fill:#FFFFFF">
    <path
       d="M50,64c4,0,7.9-0.8,11.6-2.3c7.5-3.1,13.3-8.9,16.4-16.4c3.1-7.5,3.1-15.7,0-23.2C73.3,10.6,62.3,3.2,50,3.2c-4,0-7.9,0.8-11.6,2.3C30.9,8.6,25,14.5,21.9,22c-3.1,7.5-3.1,15.7,0,23.2C26.7,56.6,37.7,64,50,64zM26.3,46.3h7.8c1.7,5.1,4.2,9.7,7.4,12.8C35,56.9,29.6,52.4,26.3,46.3zM24.7,24.4H33c-0.7,3-1,6.1-1,9.2c0,3,0.4,6.1,1.1,9.2h-8.3C22.6,36.8,22.6,30.4,24.7,24.4zM75.2,24.4c2.2,6,2.2,12.4,0,18.4h-8.3c0.7-3.1,1.1-6.2,1.1-9.2c0-3-0.4-6.2-1-9.2H75.2zM64.6,33.6c0,3-0.5,6.1-1.3,9.2H51.7V24.4h11.8C64.2,27.3,64.6,30.4,64.6,33.6zM48.2,59.4c-4.3-1.2-8.1-6.6-10.5-13.1h10.5V59.4zM51.7,59.4V46.3h10.5C59.9,52.8,56,58.2,51.7,59.4zM51.7,20.9V7.7c4.4,1.1,8.5,6.3,10.8,13.2H51.7zM48.2,7.7v13.2H37.5C39.8,14,43.8,8.8,48.2,7.7zM48.2,24.4v18.4H36.7c-0.8-3.1-1.3-6.2-1.3-9.2c0-3.2,0.4-6.3,1.1-9.2H48.2zM60.3,58.4c-0.6,0.2-1.1,0.4-1.7,0.6c3.1-3.1,5.7-7.7,7.4-12.8h7.8C70.8,51.8,66.1,56,60.3,58.4zM73.7,20.9h-7.5c-1.5-5-3.9-9.5-7-12.6C65.3,10.6,70.5,15,73.7,20.9zM39.7,8.8c0.4-0.2,0.7-0.3,1.1-0.4c-3,3.1-5.4,7.6-7,12.6h-7.6C29.2,15.4,33.9,11.2,39.7,8.8zM90.7,96.8c4.7,0,8.5-3.8,8.5-8.5s-3.8-8.5-8.5-8.5c-4.1,0-7.5,2.9-8.3,6.8h-24c-0.7-3.3-3.3-5.9-6.6-6.6v-7.6c0-1-0.8-1.8-1.8-1.8s-1.8,0.8-1.8,1.8V80c-3.3,0.7-5.9,3.3-6.6,6.6h-24c-0.7-3.3-3.3-6-6.7-6.6c-3.1-0.6-6.2,0.5-8.2,2.9c-1.6,2-2.3,4.5-1.8,7.1c0.6,3.4,3.3,6.1,6.7,6.7c0.5,0.1,1.1,0.2,1.6,0.2c2.5,0,4.9-1.1,6.5-3.1c0.9-1.1,1.5-2.3,1.8-3.7h24c0.8,3.9,4.2,6.8,8.3,6.8c4.1,0,7.5-2.9,8.3-6.8h24C83.2,93.9,86.6,96.8,90.7,96.8zM90.7,83.3c2.8,0,5,2.2,5,5s-2.2,5-5,5c-2.7,0-4.8-2.1-5-4.7c0-0.1,0-0.2,0-0.3s0-0.2,0-0.3C85.8,85.4,88,83.3,90.7,83.3zM13.2,91.5c-1.2,1.4-3,2.1-4.8,1.7c-1.9-0.4-3.5-2-3.9-3.9c-0.3-1.5,0.1-3,1.1-4.2c1-1.2,2.4-1.8,3.9-1.8c0.3,0,0.7,0,1,0.1c1.9,0.4,3.5,2,3.9,3.9C14.5,88.8,14.2,90.3,13.2,91.5zM50,93.3c-2.8,0-5-2.2-5-5s2.2-5,5-5s5,2.2,5,5S52.8,93.3,50,93.3z"></path>
  </g>
</svg>
