<svg width="40" height="40" id="Layer_1" data-name="Layer 1" xmlns="http://www.w3.org/2000/svg" viewBox="0 0 500 500">
  <defs>
    <style>
      .cls-1 {
        fill: #7d4698;
      }

      .cls-2 {
        fill: none;
        stroke: #fff;
        stroke-linecap: round;
        stroke-miterlimit: 10;
        stroke-width: 16px;
      }

      .cls-3 {
        fill: #fff;
      }
    </style>
  </defs>
  <title>website</title>
  <path class="cls-1" d="M500,250A250,250,0,1,1,0,250C0,111.93,111.93,0,250,0S500,111.93,500,250Z" />
  <path class="cls-2" d="M365.65,413.78l-29.41-29.41a3.57,3.57,0,0,1,0-5l6.75-6.75a3.57,3.57,0,0,0-1.76-6l-54.94-12a4.49,4.49,0,0,0-5.34,5.34l11.62,53.29a4.49,4.49,0,0,0,7.56,2.22l5.56-5.56a3.57,3.57,0,0,1,5,0l29.41,29.41a3.57,3.57,0,0,0,5,0l20.46-20.46A3.57,3.57,0,0,0,365.65,413.78Z" />
  <path class="cls-2" d="M396.52,317.69H82.6c-8.32,0-15.06-7.48-15.06-16.7V199c0-9.22,6.74-16.7,15.06-16.7H396.52" />
  <path class="cls-3" d="M158.23,226.21h12v46.46h-12V253.88H139.44v18.79h-12V226.21h12v18.08h18.79Z" />
  <path class="cls-3" d="M193.93,272.67V236.13H180.09v-9.92h40.07v9.92H206.32v36.54Z" />
  <path class="cls-3" d="M240.45,272.67V236.13H226.62v-9.92h40.07v9.92H252.85v36.54Z" />
  <path class="cls-3" d="M276.53,226.21h22.12q8,0,12.33,3.82a14.31,14.31,0,0,1-.07,20.65q-4.44,3.85-12.27,3.85H288.8v18.14H276.53ZM297,245.4q6.92,0,6.92-4.89a4.43,4.43,0,0,0-1.66-3.75q-1.66-1.27-5.25-1.27H288.8v9.92Z" />
  <path class="cls-3" d="M324.89,240.24h12.33v12.07H324.89Zm0,20.29h12.33v12.14H324.89Z" />
  <path class="cls-3" d="M355.75,276.85h-9.46l17.16-53.64H373Z" />
  <path class="cls-3" d="M380.22,276.85h-9.46l17.16-53.64h9.53Z" />
</svg>
