<svg xmlns="http://www.w3.org/2000/svg" xmlns:xlink="http://www.w3.org/1999/xlink" width="40" height="40" viewBox="0 0 100 100">
  <circle stroke="none" fill="#038392" r="48%" cx="50%" cy="50%"></circle>
  <g transform="translate(50 50) scale(1 1) rotate(0) translate(-30 -30)" style="fill:#ffffff">
    <path d="M61.63,52.323c0-0.483,0.864-0.876,1.938-0.886c-0.034-0.479-0.097-0.951-0.184-1.414     c-1.04,0.271-1.978,0.115-2.102-0.352c-0.125-0.467,0.609-1.07,1.645-1.355c-0.158-0.453-0.338-0.894-0.544-1.319     c-0.934,0.53-1.883,0.625-2.124,0.204c-0.243-0.419,0.312-1.191,1.238-1.736c-0.267-0.394-0.56-0.771-0.872-1.129     c-0.765,0.753-1.653,1.086-1.995,0.744c-0.342-0.342-0.008-1.23,0.744-1.994c-0.358-0.312-0.734-0.605-1.129-0.872     c-0.544,0.926-1.317,1.481-1.736,1.238c-0.421-0.241-0.326-1.189,0.204-2.124c-0.425-0.206-0.866-0.386-1.319-0.544     c-0.285,1.036-0.888,1.77-1.355,1.645c-0.467-0.123-0.623-1.062-0.352-2.102c-0.463-0.087-0.934-0.15-1.414-0.184     c-0.01,1.074-0.403,1.938-0.884,1.938c-0.483,0-0.876-0.864-0.886-1.938c-0.479,0.034-0.951,0.097-1.414,0.184     c0.271,1.04,0.115,1.978-0.352,2.102c-0.467,0.125-1.07-0.609-1.355-1.645c-0.453,0.158-0.894,0.338-1.319,0.544     c0.53,0.934,0.625,1.883,0.204,2.124c-0.419,0.243-1.191-0.312-1.736-1.238c-0.394,0.267-0.771,0.56-1.129,0.872     c0.753,0.765,1.086,1.653,0.744,1.994c-0.342,0.342-1.23,0.008-1.994-0.744c-0.312,0.358-0.605,0.734-0.872,1.129     c0.926,0.544,1.481,1.317,1.238,1.736c-0.241,0.421-1.189,0.326-2.124-0.204c-0.206,0.425-0.386,0.866-0.544,1.319     c1.036,0.285,1.77,0.888,1.647,1.355c-0.125,0.467-1.064,0.623-2.104,0.352c-0.087,0.463-0.15,0.935-0.184,1.414     c1.074,0.01,1.938,0.403,1.938,0.886c0,0.482-0.864,0.874-1.938,0.884c0.034,0.479,0.097,0.951,0.184,1.414     c1.04-0.271,1.978-0.115,2.104,0.352c0.123,0.467-0.611,1.07-1.647,1.355c0.158,0.453,0.338,0.894,0.544,1.319     c0.934-0.53,1.883-0.625,2.124-0.204c0.243,0.419-0.312,1.191-1.238,1.736c0.267,0.395,0.56,0.771,0.872,1.129     c0.765-0.753,1.653-1.086,1.994-0.744c0.342,0.342,0.008,1.23-0.744,1.995c0.358,0.311,0.734,0.605,1.129,0.872     c0.544-0.926,1.317-1.481,1.736-1.238c0.421,0.241,0.326,1.189-0.204,2.124c0.425,0.206,0.866,0.386,1.319,0.544     c0.285-1.036,0.888-1.77,1.355-1.647c0.467,0.125,0.623,1.064,0.352,2.104c0.463,0.087,0.935,0.15,1.414,0.184     c0.01-1.074,0.403-1.938,0.886-1.938c0.481,0,0.874,0.864,0.884,1.938c0.479-0.034,0.951-0.097,1.414-0.184     c-0.271-1.04-0.115-1.978,0.352-2.104c0.467-0.123,1.07,0.611,1.355,1.647c0.453-0.158,0.894-0.338,1.319-0.544     c-0.53-0.935-0.625-1.883-0.204-2.124c0.419-0.243,1.192,0.312,1.736,1.238c0.394-0.267,0.771-0.56,1.129-0.872     c-0.752-0.765-1.086-1.653-0.744-1.995c0.342-0.342,1.23-0.008,1.995,0.744c0.312-0.358,0.605-0.734,0.872-1.129     c-0.926-0.544-1.481-1.317-1.238-1.736c0.241-0.421,1.189-0.326,2.124,0.204c0.206-0.425,0.386-0.866,0.544-1.319     c-1.036-0.285-1.77-0.888-1.645-1.355c0.123-0.467,1.062-0.623,2.102-0.352c0.087-0.463,0.15-0.934,0.184-1.414     C62.494,53.197,61.63,52.804,61.63,52.323z M58.395,48.366l-3.837,1.61c-0.54-0.729-1.323-1.263-2.232-1.485v-4.161     C54.934,44.633,57.159,46.181,58.395,48.366z M49.66,52.322c0-0.955,0.774-1.73,1.73-1.73c0.956,0,1.73,0.774,1.73,1.73     c0,0.956-0.774,1.73-1.73,1.73C50.434,54.052,49.66,53.277,49.66,52.322z M50.453,44.331v4.16     c-0.778,0.19-1.464,0.609-1.985,1.184l-3.658-1.98C46.097,45.868,48.122,44.602,50.453,44.331z M45.079,57.308     c-1.085-1.372-1.738-3.101-1.738-4.986c0-1.054,0.208-2.058,0.577-2.981l3.658,1.98c-0.084,0.32-0.133,0.654-0.133,1     c0,0.75,0.213,1.449,0.577,2.046L45.079,57.308z M51.391,60.371c-1.885,0-3.615-0.653-4.987-1.739l2.941-2.94     c0.597,0.363,1.296,0.576,2.046,0.576c0.729,0,1.409-0.201,1.995-0.545l2.894,2.983C54.922,59.746,53.231,60.371,51.391,60.371z      M57.628,57.406l-2.899-2.988c0.383-0.608,0.607-1.325,0.607-2.097c0-0.211-0.021-0.416-0.053-0.618l3.837-1.611     c0.204,0.709,0.32,1.455,0.32,2.23C59.44,54.251,58.759,56.02,57.628,57.406z"></path>
    <path d="M52.716,30.956c0-0.332,0.594-0.602,1.332-0.609c-0.024-0.329-0.067-0.653-0.126-0.972     c-0.715,0.186-1.359,0.079-1.444-0.242c-0.086-0.321,0.418-0.735,1.13-0.931c-0.108-0.311-0.232-0.614-0.374-0.906     c-0.642,0.364-1.294,0.43-1.459,0.14c-0.167-0.288,0.214-0.819,0.851-1.193c-0.184-0.271-0.385-0.53-0.599-0.776     c-0.525,0.517-1.136,0.747-1.37,0.512c-0.235-0.235-0.006-0.845,0.511-1.371c-0.246-0.214-0.504-0.416-0.776-0.599     c-0.374,0.637-0.905,1.017-1.193,0.851c-0.289-0.166-0.224-0.817,0.14-1.46c-0.292-0.142-0.595-0.265-0.906-0.374     c-0.196,0.712-0.61,1.216-0.931,1.13c-0.321-0.085-0.428-0.73-0.242-1.444c-0.318-0.06-0.642-0.103-0.972-0.126     c-0.007,0.738-0.277,1.332-0.607,1.332c-0.332,0-0.602-0.594-0.609-1.332c-0.329,0.024-0.653,0.067-0.972,0.126     c0.186,0.714,0.079,1.359-0.242,1.444c-0.321,0.086-0.735-0.418-0.931-1.13c-0.311,0.108-0.614,0.232-0.906,0.374     c0.364,0.642,0.429,1.294,0.14,1.46c-0.288,0.167-0.819-0.214-1.193-0.851c-0.271,0.184-0.53,0.385-0.776,0.599     c0.517,0.525,0.746,1.136,0.511,1.371c-0.235,0.235-0.845,0.006-1.37-0.512c-0.214,0.246-0.416,0.505-0.599,0.776     c0.637,0.374,1.017,0.905,0.851,1.193c-0.165,0.289-0.817,0.224-1.459-0.14c-0.142,0.292-0.266,0.595-0.374,0.906     c0.712,0.196,1.216,0.61,1.131,0.931c-0.086,0.321-0.731,0.428-1.446,0.242c-0.06,0.318-0.103,0.642-0.126,0.972     c0.738,0.007,1.332,0.277,1.332,0.609c0,0.331-0.593,0.601-1.332,0.607c0.024,0.329,0.067,0.653,0.126,0.972     c0.714-0.186,1.359-0.079,1.446,0.242c0.085,0.321-0.42,0.735-1.131,0.931c0.108,0.311,0.232,0.614,0.374,0.906     c0.642-0.364,1.294-0.429,1.459-0.14c0.167,0.288-0.214,0.819-0.851,1.193c0.183,0.271,0.385,0.53,0.599,0.776     c0.525-0.517,1.136-0.747,1.37-0.512c0.235,0.235,0.006,0.845-0.511,1.371c0.246,0.214,0.505,0.416,0.776,0.599     c0.374-0.637,0.905-1.018,1.193-0.851c0.289,0.165,0.224,0.817-0.14,1.459c0.292,0.142,0.595,0.265,0.906,0.374     c0.196-0.712,0.61-1.216,0.931-1.131c0.321,0.086,0.428,0.731,0.242,1.445c0.318,0.06,0.642,0.103,0.972,0.126     c0.007-0.738,0.277-1.332,0.609-1.332c0.331,0,0.6,0.594,0.607,1.332c0.329-0.024,0.653-0.067,0.972-0.126     c-0.186-0.715-0.079-1.359,0.242-1.445c0.321-0.085,0.735,0.42,0.931,1.131c0.311-0.109,0.614-0.232,0.906-0.374     c-0.364-0.642-0.43-1.294-0.14-1.459c0.288-0.167,0.819,0.214,1.193,0.851c0.271-0.184,0.53-0.385,0.776-0.599     c-0.517-0.525-0.746-1.136-0.511-1.371c0.235-0.235,0.845-0.006,1.37,0.512c0.214-0.246,0.416-0.505,0.599-0.776     c-0.637-0.374-1.018-0.905-0.851-1.193c0.165-0.289,0.817-0.224,1.459,0.14c0.142-0.292,0.265-0.595,0.374-0.906     c-0.712-0.196-1.216-0.61-1.13-0.931c0.085-0.321,0.73-0.428,1.444-0.242c0.06-0.318,0.103-0.642,0.126-0.972     C53.31,31.556,52.716,31.286,52.716,30.956z M50.493,28.236l-2.637,1.107c-0.371-0.501-0.909-0.868-1.533-1.02v-2.859     C48.115,25.672,49.644,26.735,50.493,28.236z M44.491,30.955c0-0.657,0.532-1.189,1.189-1.189c0.657,0,1.189,0.532,1.189,1.189     c0,0.657-0.532,1.189-1.189,1.189C45.023,32.144,44.491,31.611,44.491,30.955z M45.036,25.464v2.859     c-0.535,0.13-1.006,0.419-1.364,0.813l-2.514-1.361C42.043,26.52,43.434,25.65,45.036,25.464z M41.343,34.381     c-0.746-0.943-1.195-2.131-1.195-3.426c0-0.724,0.143-1.414,0.396-2.049l2.514,1.361c-0.057,0.22-0.091,0.449-0.091,0.687     c0,0.515,0.146,0.996,0.396,1.406L41.343,34.381z M45.68,36.486c-1.295,0-2.484-0.449-3.427-1.195l2.021-2.021     c0.41,0.25,0.89,0.396,1.406,0.396c0.501,0,0.968-0.138,1.371-0.375l1.989,2.05C48.107,36.057,46.945,36.486,45.68,36.486z      M49.966,34.449l-1.992-2.053c0.263-0.418,0.417-0.911,0.417-1.441c0-0.145-0.015-0.286-0.037-0.425l2.636-1.107     c0.14,0.487,0.22,1,0.22,1.532C51.211,32.281,50.744,33.496,49.966,34.449z"></path>
    <path d="M30.889,0.5H5.169c-2.062,0-3.737,1.685-3.737,3.747v50.857c0,2.017,1.606,3.662,3.606,3.733V60     c0,2.481,2.018,4.5,4.499,4.5h16.995c2.481,0,4.499-2.019,4.499-4.5v-1.164c1.996-0.076,3.606-1.719,3.606-3.732V4.247     C34.636,2.185,32.951,0.5,30.889,0.5z M6.031,8.013c0-1.616,1.298-2.914,2.904-2.914h18.188c1.616,0,2.914,1.298,2.914,2.914     v1.14H6.031V8.013z M6.031,11.234h24.006v3.628H6.031V11.234z M6.031,16.934h24.006v3.628H6.031V16.934z M6.031,22.643h24.006     v1.14c0,1.606-1.298,2.914-2.914,2.914H8.935c-1.606,0-2.904-1.308-2.904-2.914V22.643z M26.003,32.069v4.084     c0,0.149-0.129,0.277-0.278,0.277h-1.516c-0.149,0-0.278-0.129-0.278-0.277v-4.084c0-0.159,0.129-0.278,0.278-0.278h1.516     C25.874,31.791,26.003,31.91,26.003,32.069z M18.034,45.757c-1.685,0-3.063-1.368-3.063-3.063c0-1.685,1.378-3.053,3.063-3.053     s3.063,1.368,3.063,3.053C21.097,44.389,19.719,45.757,18.034,45.757z M20.373,50.901c0,1.289-1.051,2.339-2.339,2.339     s-2.339-1.051-2.339-2.339c0-1.298,1.051-2.339,2.339-2.339S20.373,49.602,20.373,50.901z M14.961,36.43     c-0.159,0-0.278-0.129-0.278-0.277v-4.084c0-0.159,0.119-0.278,0.278-0.278h1.517c0.149,0,0.268,0.119,0.268,0.278v4.084     c0,0.149-0.119,0.277-0.268,0.277H14.961z M19.58,36.43c-0.149,0-0.268-0.129-0.268-0.277v-4.084     c0-0.159,0.119-0.278,0.268-0.278h1.517c0.159,0,0.278,0.119,0.278,0.278v4.084c0,0.149-0.119,0.277-0.278,0.277H19.58z      M12.127,32.069v4.084c0,0.149-0.129,0.277-0.277,0.277h-1.517c-0.149,0-0.278-0.129-0.278-0.277v-4.084     c0-0.159,0.129-0.278,0.278-0.278h1.517C11.998,31.791,12.127,31.91,12.127,32.069z M26.531,62.518H9.536     c-1.388,0-2.517-1.129-2.517-2.518v-1.15h22.028V60C29.048,61.388,27.919,62.518,26.531,62.518z"></path>
    <circle cx="18.034" cy="50.897" r="1.347"></circle>
  </g>
</svg>