<svg width="40" height="40" id="Layer_1" data-name="Layer 1" xmlns="http://www.w3.org/2000/svg" viewBox="0 0 500 500">
  <defs>
    <style>
      .cls-1 {
        fill: #f98f10;
      }

      .cls-2 {
        fill: none;
        stroke: #fff;
        stroke-linecap: round;
        stroke-miterlimit: 10;
        stroke-width: 16px;
      }
    </style>
  </defs>
  <title>organization</title>
  <path class="cls-1" d="M500,250A250,250,0,1,1,0,250C0,111.93,111.93,0,250,0S500,111.93,500,250Z" />
  <path class="cls-2" d="M175.58,171.22H324.42a13.41,13.41,0,0,1,13.41,13.41V379.06a0,0,0,0,1,0,0H162.17a0,0,0,0,1,0,0V184.63A13.41,13.41,0,0,1,175.58,171.22Z" />
  <line class="cls-2" x1="131.35" y1="379.06" x2="368.65" y2="379.06" />
  <path class="cls-2" d="M192.34,163.44V138a7.6,7.6,0,0,1,7.6-7.6H300.06a7.6,7.6,0,0,1,7.6,7.6v25.48" />
  <path class="cls-2" d="M210.54,322.57h74a8.82,8.82,0,0,1,8.82,8.82v47.67a0,0,0,0,1,0,0H203.07a0,0,0,0,1,0,0v-49A7.48,7.48,0,0,1,210.54,322.57Z" />
  <line class="cls-2" x1="199.65" y1="213.83" x2="229.24" y2="213.83" />
  <line class="cls-2" x1="199.65" y1="249.59" x2="229.24" y2="249.59" />
  <line class="cls-2" x1="199.65" y1="285.35" x2="229.24" y2="285.35" />
  <line class="cls-2" x1="267.77" y1="213.83" x2="297.36" y2="213.83" />
  <line class="cls-2" x1="267.77" y1="249.59" x2="297.36" y2="249.59" />
  <line class="cls-2" x1="267.77" y1="285.35" x2="297.36" y2="285.35" />
  <line class="cls-2" x1="248.21" y1="322.78" x2="248.21" y2="373.7" />
</svg>