<svg xmlns="http://www.w3.org/2000/svg" xmlns:xlink="http://www.w3.org/1999/xlink" width="40" height="40" viewBox="0 0 100 100">
  <circle stroke="none" fill="#6ca991" r="48%" cx="50%" cy="50%"></circle>
  <g transform="translate(50 50) scale(2.4 2.4) rotate(0) translate(-16 -16)" style="fill:#ffffff">
      <path d="M9.893,11.095l-1.774,-2.043c-0.181,-0.209 -0.497,-0.231 -0.705,-0.05c-0.209,0.181 -0.231,0.497 -0.05,0.705l1.936,2.229c0.229,0.265 0.592,0.37 0.927,0.269c0.335,-0.101 0.58,-0.389 0.626,-0.736l0.044,-0.341c0.038,-0.288 0.19,-0.549 0.421,-0.725c0,-0 0,-0 0,-0c0.564,-0.428 0.874,-1.112 0.823,-1.818c-0.072,-1.009 -0.182,-2.545 -0.182,-2.545c-0.019,-0.275 -0.259,-0.483 -0.534,-0.463c-0.275,0.019 -0.483,0.259 -0.463,0.534l0.182,2.545c0.026,0.369 -0.136,0.727 -0.43,0.95c-0,0 -0,0 -0,0c-0.445,0.338 -0.736,0.839 -0.808,1.392l-0.013,0.097Z"></path>
      <path d="M9.319,12.088l-0.669,1.27c-0.293,0.556 -0.1,1.244 0.438,1.567c0,-0 0.694,0.416 0.694,0.416c0.025,0.015 0.047,0.037 0.063,0.063l0.845,1.409c0.235,0.392 0.675,0.613 1.129,0.569c0.455,-0.044 0.843,-0.345 0.999,-0.775c0.323,-0.891 0.73,-2.015 0.973,-2.686c0.207,-0.573 -0.054,-1.21 -0.604,-1.472l-1.066,-0.507c-0.055,-0.026 -0.112,-0.048 -0.171,-0.066l-1.246,-0.37c-0.542,-0.162 -1.122,0.082 -1.385,0.582l0,0Zm0.216,1.737l0.669,-1.271c0.041,-0.077 0.13,-0.115 0.214,-0.09c0,-0 1.247,0.371 1.247,0.371l0.026,0.01l1.066,0.507c0.085,0.041 0.125,0.14 0.093,0.228l-0.973,2.687c-0.024,0.067 -0.084,0.113 -0.154,0.12c-0.071,0.007 -0.139,-0.027 -0.175,-0.088l-0.846,-1.41c-0.1,-0.166 -0.239,-0.306 -0.406,-0.406l-0.693,-0.416c-0.084,-0.05 -0.114,-0.156 -0.068,-0.242Z"></path>
      <path d="M15.397,9.764c0.016,0.018 0.034,0.034 0.053,0.049c0.162,0.134 0.312,0.11 0.312,0.11c0.067,-0 0.133,-0.013 0.195,-0.039l3.659,-1.547c0.254,-0.108 0.374,-0.401 0.266,-0.655c-0.107,-0.255 -0.401,-0.374 -0.655,-0.266l-3.341,1.412l-0.178,-0.187c-0.136,-0.143 -0.185,-0.347 -0.128,-0.536c-0,-0 0.662,-2.205 0.662,-2.205c0.08,-0.264 -0.07,-0.543 -0.335,-0.622c-0.264,-0.08 -0.543,0.07 -0.622,0.335l-0.663,2.204c-0.16,0.533 -0.022,1.11 0.362,1.513c0.187,0.197 0.375,0.394 0.41,0.431l0.003,0.003Z"></path>
      <path d="M15.7,12.025l2.371,-0.686c0.133,-0.038 0.244,-0.13 0.307,-0.253l1.508,-2.966c0.125,-0.246 0.027,-0.548 -0.219,-0.673c-0.246,-0.125 -0.548,-0.027 -0.673,0.219l-1.409,2.773c-0,0 -2.374,0.687 -2.374,0.687c0,-0 -0.309,0.26 -0.309,0.26c-0,-0 -0.061,0.12 -0.128,0.254c-0.357,0.715 -0.135,1.583 0.521,2.039l1.092,0.758c0.312,0.217 0.684,0.333 1.064,0.333c1.07,-0 3.777,-0 3.777,-0c0.276,-0 0.5,-0.224 0.5,-0.5c0,-0.276 -0.224,-0.5 -0.5,-0.5c0,-0 -2.707,-0 -3.777,-0c-0.176,-0 -0.349,-0.054 -0.494,-0.155c0,0 -1.092,-0.758 -1.092,-0.758c-0.247,-0.172 -0.331,-0.5 -0.196,-0.77l0.031,-0.062Z"></path>
      <path d="M14.123,5.07c-4.277,-0 -7.75,3.473 -7.75,7.75c0,4.277 3.473,7.75 7.75,7.75c4.278,-0 7.75,-3.473 7.75,-7.75c0,-4.277 -3.472,-7.75 -7.75,-7.75Zm0,1c3.726,-0 6.75,3.025 6.75,6.75c0,3.725 -3.024,6.75 -6.75,6.75c-3.725,-0 -6.75,-3.025 -6.75,-6.75c0,-3.725 3.025,-6.75 6.75,-6.75Z"></path>
      <path d="M7.909,23.752l12.429,-0c0.276,-0 0.5,-0.224 0.5,-0.5c0,-0.276 -0.224,-0.5 -0.5,-0.5l-12.429,-0c-0.276,-0 -0.5,0.224 -0.5,0.5c-0,0.276 0.224,0.5 0.5,0.5Z"></path>
      <path d="M7.909,27.252l12.429,-0c0.276,-0 0.5,-0.224 0.5,-0.5c0,-0.276 -0.224,-0.5 -0.5,-0.5l-12.429,-0c-0.276,-0 -0.5,0.224 -0.5,0.5c-0,0.276 0.224,0.5 0.5,0.5Z"></path>
      <path d="M25.123,4c0,-1.381 -1.119,-2.5 -2.499,-2.5l-17.001,0c-1.38,0 -2.5,1.119 -2.5,2.5c0,5.154 0,18.846 0,24c0,1.381 1.12,2.5 2.5,2.5l17.001,0c1.38,-0 2.499,-1.119 2.499,-2.5l0,-24Zm-1,0l0,24c0,0.828 -0.671,1.5 -1.499,1.5c-0.001,-0 -17.001,-0 -17.001,-0c-0.828,-0 -1.5,-0.672 -1.5,-1.5c0,-5.154 0,-18.846 0,-24c0,-0.828 0.672,-1.5 1.5,-1.5c0.001,0 17,0 17,0c0.829,0 1.5,0.672 1.5,1.5Z"></path>
      <path d="M12.493,2.5c-0.277,0 -0.5,-0.224 -0.5,-0.5c-0,-0.276 0.223,-0.5 0.5,-0.5c3.494,0 10.67,0 14.165,0c0.663,-0 1.299,0.263 1.767,0.732c0.469,0.469 0.733,1.105 0.733,1.768c-0,4.556 -0,15.664 -0,20.22c-0,0.663 -0.264,1.299 -0.733,1.768c-0.468,0.469 -1.104,0.732 -1.767,0.732l-2.035,0c-0.276,0 -0.5,-0.224 -0.5,-0.5c0,0 0,-22.22 0,-22.22c0,-0.828 -0.671,-1.5 -1.5,-1.5c0,0 -10.13,0 -10.13,0Zm12.131,0l2.034,0c0.398,-0 0.779,0.158 1.06,0.439c0.282,0.282 0.44,0.663 0.44,1.061l-0,20.22c-0,0.398 -0.158,0.78 -0.44,1.061c-0.281,0.281 -0.662,0.439 -1.06,0.439l-1.535,0c0,0 0,-21.72 0,-21.72c0,-0.563 -0.185,-1.082 -0.499,-1.5Z"></path>
      <path d="M27.121,11.584c-0,-1.379 -1.118,-2.496 -2.496,-2.496c-0,-0 -0,-0 -0,-0c-0.664,-0 -0.502,0.776 -0.502,0.5l0,10.583c0,0.276 0.224,0.5 0.5,0.5l0.002,0c1.378,0 2.496,-1.117 2.496,-2.496l-0,-6.591Zm-1.998,-1.411c0.581,0.205 0.998,0.759 0.998,1.411l-0,6.591c-0,0.652 -0.417,1.206 -0.998,1.411l0,-9.413Z"></path>
  </g>
</svg>