<svg xmlns="http://www.w3.org/2000/svg" xmlns:xlink="http://www.w3.org/1999/xlink" width="40" height="40" viewBox="0 0 100 100">
  <circle stroke="none" fill="#520808" r="48%" cx="50%" cy="50%"></circle>
  <g transform="translate(50 50) scale(0.69 0.69) rotate(0) translate(-50 -50)" style="fill:#ffffff">
      <path d="M58.378,75.159l-13.333-5c-0.919-0.346-1.954-0.121-2.646,0.573l-3.525,3.525c-5.078-3.647-9.483-8.053-13.131-13.132   l3.525-3.525c0.693-0.693,0.917-1.728,0.573-2.646l-5-13.333C24.475,40.646,23.542,40,22.5,40h-0.932   c-4.365,0-8.469,1.7-11.557,4.786c0,0.001,0,0.001,0,0.001C6.779,48.018,5,52.314,5,56.884c0,3.026,0.806,6.008,2.33,8.62   c6.548,11.225,15.942,20.618,27.165,27.165C37.108,94.194,40.089,95,43.116,95c4.569,0,8.866-1.779,12.098-5.011   C58.3,86.902,60,82.798,60,78.433V77.5C60,76.458,59.354,75.525,58.378,75.159z M51.678,86.454C49.391,88.74,46.35,90,43.116,90   c-2.142,0-4.251-0.57-6.101-1.649c-10.48-6.113-19.252-14.885-25.366-25.366C10.57,61.136,10,59.026,10,56.884   c0-3.234,1.259-6.274,3.546-8.562v0.001c1.956-1.956,4.5-3.109,7.232-3.296l3.816,10.176l-3.861,3.862   c-0.843,0.843-0.974,2.163-0.313,3.154c4.608,6.912,10.449,12.753,17.36,17.36c0.992,0.661,2.313,0.531,3.154-0.313l3.862-3.861   l10.177,3.816C54.787,81.955,53.633,84.498,51.678,86.454z"></path>
      <path d="M87.5,5C83.364,5,80,8.364,80,12.5s3.364,7.5,7.5,7.5s7.5-3.364,7.5-7.5S91.636,5,87.5,5z M87.5,15   c-1.378,0-2.5-1.121-2.5-2.5s1.122-2.5,2.5-2.5s2.5,1.121,2.5,2.5S88.878,15,87.5,15z"></path>
      <path d="M87.5,22.5c-4.136,0-7.5,3.364-7.5,7.5s3.364,7.5,7.5,7.5S95,34.136,95,30S91.636,22.5,87.5,22.5z M87.5,32.5   c-1.378,0-2.5-1.121-2.5-2.5s1.122-2.5,2.5-2.5S90,28.621,90,30S88.878,32.5,87.5,32.5z"></path>
      <path d="M87.5,40c-4.136,0-7.5,3.364-7.5,7.5s3.364,7.5,7.5,7.5s7.5-3.364,7.5-7.5S91.636,40,87.5,40z M87.5,50   c-1.378,0-2.5-1.121-2.5-2.5s1.122-2.5,2.5-2.5s2.5,1.121,2.5,2.5S88.878,50,87.5,50z"></path>
      <path d="M70,57.5c-4.136,0-7.5,3.364-7.5,7.5s3.364,7.5,7.5,7.5s7.5-3.364,7.5-7.5S74.136,57.5,70,57.5z M70,67.5   c-1.378,0-2.5-1.121-2.5-2.5s1.122-2.5,2.5-2.5s2.5,1.121,2.5,2.5S71.378,67.5,70,67.5z"></path>
      <path d="M70,40c-4.136,0-7.5,3.364-7.5,7.5S65.864,55,70,55s7.5-3.364,7.5-7.5S74.136,40,70,40z M70,50c-1.378,0-2.5-1.121-2.5-2.5   S68.622,45,70,45s2.5,1.121,2.5,2.5S71.378,50,70,50z"></path>
      <path d="M52.5,40c-4.136,0-7.5,3.364-7.5,7.5s3.364,7.5,7.5,7.5s7.5-3.364,7.5-7.5S56.636,40,52.5,40z M52.5,50   c-1.378,0-2.5-1.121-2.5-2.5s1.122-2.5,2.5-2.5s2.5,1.121,2.5,2.5S53.878,50,52.5,50z"></path>
      <path d="M52.5,22.5c-4.136,0-7.5,3.364-7.5,7.5s3.364,7.5,7.5,7.5S60,34.136,60,30S56.636,22.5,52.5,22.5z M52.5,32.5   c-1.378,0-2.5-1.121-2.5-2.5s1.122-2.5,2.5-2.5S55,28.621,55,30S53.878,32.5,52.5,32.5z"></path>
      <path d="M70,22.5c-4.136,0-7.5,3.364-7.5,7.5s3.364,7.5,7.5,7.5s7.5-3.364,7.5-7.5S74.136,22.5,70,22.5z M70,32.5   c-1.378,0-2.5-1.121-2.5-2.5s1.122-2.5,2.5-2.5s2.5,1.121,2.5,2.5S71.378,32.5,70,32.5z"></path>
      <path d="M70,5c-4.136,0-7.5,3.364-7.5,7.5S65.864,20,70,20s7.5-3.364,7.5-7.5S74.136,5,70,5z M70,15c-1.378,0-2.5-1.121-2.5-2.5   S68.622,10,70,10s2.5,1.121,2.5,2.5S71.378,15,70,15z"></path>
      <path d="M52.5,5C48.364,5,45,8.364,45,12.5s3.364,7.5,7.5,7.5s7.5-3.364,7.5-7.5S56.636,5,52.5,5z M52.5,15   c-1.378,0-2.5-1.121-2.5-2.5s1.122-2.5,2.5-2.5s2.5,1.121,2.5,2.5S53.878,15,52.5,15z"></path>
  </g>
</svg>