<?xml version="1.0" encoding="UTF-8"?>
<svg width="40" height="40" version="1.1" viewBox="0 0 1200 1200" xmlns="http://www.w3.org/2000/svg">
 <g>
  <path d="m1200 600c0 214.36-114.36 412.44-300 519.62-185.64 107.18-414.36 107.18-600 0-185.64-107.18-300-305.26-300-519.62s114.36-412.44 300-519.62c185.64-107.18 414.36-107.18 600 0 185.64 107.18 300 305.26 300 519.62" fill="#2f3628"/>
  <path d="m611.81 576.39h-35.422v-11.809h35.426-0.003906c6.5234 0 11.809-5.2891 11.809-11.809s-5.2852-11.809-11.809-11.809h-11.809c0-6.5195-5.2852-11.809-11.805-11.809-6.5234 0-11.809 5.2891-11.809 11.809h-11.809c-6.5234 0-11.809 5.2891-11.809 11.809v35.426c0 3.1289 1.2422 6.1328 3.457 8.3477 2.2148 2.2148 5.2188 3.457 8.3516 3.457h35.426v11.809h-35.426c-6.5234 0-11.809 5.2891-11.809 11.809 0 6.5234 5.2852 11.809 11.809 11.809h11.809c0 6.5195 5.2852 11.809 11.809 11.809 6.5195 0 11.805-5.2891 11.805-11.809h11.809c3.1328 0 6.1367-1.2422 8.3516-3.457s3.457-5.2188 3.457-8.3516v-35.422c0-3.1328-1.2422-6.1367-3.457-8.3516s-5.2188-3.457-8.3516-3.457z" fill="#fff"/>
  <path d="m682.66 481.92h-188.93c-6.5234 0-11.809 5.2852-11.809 11.809v200.73c0 12.527 4.9766 24.543 13.832 33.398 8.8594 8.8594 20.871 13.836 33.398 13.836h141.7c12.523 0 24.539-4.9766 33.398-13.836 8.8555-8.8555 13.832-20.871 13.832-33.398v-11.809c0-3.1289-1.2422-6.1328-3.457-8.3477s-5.2188-3.457-8.3516-3.457h-11.809v-177.12c0-3.1328-1.2422-6.1367-3.457-8.3516-2.2148-2.2148-5.2188-3.457-8.3516-3.457zm-129.89 200.73v11.809c0 8.4375-4.5 16.234-11.809 20.453-7.3047 4.2188-16.309 4.2188-23.617 0-7.3047-4.2188-11.805-12.016-11.805-20.453v-188.93h165.31v165.31h-106.27c-6.5234 0-11.809 5.2852-11.809 11.805zm118.08 35.426h-100.84c4.1641-7.1758 6.3633-15.32 6.3789-23.617h118.08c0 6.2656-2.4883 12.27-6.9141 16.699-4.4297 4.4297-10.438 6.918-16.699 6.918z" fill="#fff"/>
  <path d="m566.59 785.74c-37.926-6.832-72.852-25.098-100.1-52.344-27.25-27.246-45.512-62.176-52.344-100.1-1.0391-5.6797-6.0352-9.7773-11.809-9.6836h-118.79c-3.3711-0.019532-6.5898 1.4023-8.8438 3.9062-2.2578 2.5039-3.3359 5.8516-2.9648 9.2031 8.6328 74.324 42.129 143.55 95.047 196.45 52.922 52.898 122.16 86.363 196.49 94.969h1.3008c3.1328 0 6.1328-1.2461 8.3477-3.4609 2.2148-2.2148 3.4609-5.2188 3.4609-8.3477v-118.91c0.023437-5.7695-4.1172-10.711-9.8008-11.691zm-13.816 117.25c-64.125-10.289-123.37-40.551-169.29-86.473-45.922-45.922-76.184-105.16-86.473-169.29h95.883c8.9805 38.957 28.734 74.605 57.004 102.88s63.918 48.023 102.88 57.004z" fill="#fff"/>
  <path d="m862.14 399.27c-2.0742-2.707-5.2188-4.3867-8.6211-4.6055-3.3672-0.12891-6.6445 1.1055-9.0898 3.4258l-84.547 83.836c-3.9492 3.9922-4.543 10.211-1.418 14.879 20.082 30.656 30.68 66.551 30.465 103.2-0.027344 44.312-15.629 87.207-44.074 121.18-28.449 33.973-67.938 56.867-111.55 64.676-5.6797 1.0391-9.7773 6.0352-9.6836 11.809v119.26c0 3.1328 1.2461 6.1367 3.4609 8.3477 2.2109 2.2148 5.2148 3.4609 8.3477 3.4609h1.3008c80.922-8.8594 155.71-47.34 209.97-108.03 54.258-60.691 84.152-139.3 83.93-220.71 0.26562-72.688-23.848-143.37-68.484-200.73zm-214.91 503.96v-96.117c43.555-9.9492 82.867-33.371 112.35-66.938 29.484-33.566 47.645-75.57 51.895-120.04 4.25-44.477-5.6211-89.16-28.215-127.7l68.25-68.133c36.348 51.359 55.75 112.79 55.5 175.7-0.03125 73.219-26.227 144.02-73.859 199.62-47.637 55.602-113.57 92.352-185.92 103.61z" fill="#fff"/>
  <path d="m283.31 576.39h119.26c5.7734 0.09375 10.77-4.0039 11.809-9.6836 7.8047-43.578 30.664-83.035 64.59-111.48 33.926-28.445 76.762-44.07 121.03-44.152 36.508-0.13672 72.242 10.5 102.73 30.582 4.793 3.3633 11.324 2.7109 15.352-1.5352l84.547-84.547c2.3906-2.3984 3.6406-5.7109 3.4219-9.0898-0.38672-3.5273-2.3359-6.6914-5.3125-8.6211-57.398-44.582-128.06-68.688-200.74-68.488-81.344-0.13281-159.87 29.801-220.48 84.051-60.613 54.254-99.043 128.99-107.89 209.85-0.41016 3.3359 0.62109 6.6836 2.832 9.2109 2.2617 2.5039 5.4844 3.9219 8.8555 3.8984zm316.69-283.39c62.922-0.25 124.35 19.152 175.71 55.5l-68.133 68.25c-32.559-19.289-69.73-29.41-107.57-29.285-48.141 0.027344-94.848 16.395-132.47 46.426-37.625 30.035-63.941 71.949-74.637 118.89h-96.121c11.266-72.344 48.016-138.28 103.62-185.92 55.602-47.633 126.4-73.828 199.61-73.859z" fill="#fff"/>
 </g>
</svg>
