<svg width="40" height="40" id="Layer_1" data-name="Layer 1" xmlns="http://www.w3.org/2000/svg" viewBox="0 0 500 500">
  <defs>
    <style>
      .cls-1 {
        fill: #d8864e;
      }

      .cls-2 {
        fill: none;
        stroke: #fff;
        stroke-linecap: round;
        stroke-miterlimit: 10;
        stroke-width: 16px;
      }
    </style>
  </defs>
  <title>port</title>
  <path class="cls-1" d="M500,250A250,250,0,1,1,0,250C0,111.93,111.93,0,250,0S500,111.93,500,250Z" />
  <rect class="cls-2" x="109.01" y="128.05" width="281.99" height="243.9" rx="16.93" ry="16.93" />
  <path class="cls-2" d="M329.91,169.09H170.09a9.18,9.18,0,0,0-9.18,9.18v95.06a9.18,9.18,0,0,0,9.18,9.18h23.2v23.06a4.82,4.82,0,0,0,4.82,4.82h17v16.76a3.78,3.78,0,0,0,3.78,3.78h62.17a3.78,3.78,0,0,0,3.78-3.78V310.38h17a4.82,4.82,0,0,0,4.82-4.82V282.5h23.2a9.18,9.18,0,0,0,9.18-9.18V178.27A9.18,9.18,0,0,0,329.91,169.09Z" />
  <line class="cls-2" x1="193.45" y1="198.85" x2="193.45" y2="225.21" />
  <line class="cls-2" x1="222.23" y1="198.85" x2="222.23" y2="225.21" />
  <line class="cls-2" x1="251" y1="198.85" x2="251" y2="225.21" />
  <line class="cls-2" x1="279.78" y1="198.85" x2="279.78" y2="225.21" />
  <line class="cls-2" x1="308.55" y1="198.85" x2="308.55" y2="225.21" />
</svg>