<?xml version="1.0" encoding="UTF-8"?>
<svg width="40" height="40" version="1.1" viewBox="0 0 1200 1200" xmlns="http://www.w3.org/2000/svg">
 <defs>
  <clipPath id="b">
   <path d="m777 483h200.86v83h-200.86z"/>
  </clipPath>
  <clipPath id="a">
   <path d="m222.14 552h605.86v403h-605.86z"/>
  </clipPath>
 </defs>
 <path d="m1200 600c0 214.36-114.36 412.44-300 519.62-185.64 107.18-414.36 107.18-600 0-185.64-107.18-300-305.26-300-519.62s114.36-412.44 300-519.62c185.64-107.18 414.36-107.18 600 0 185.64 107.18 300 305.26 300 519.62"/>
 <path d="m380.3 671.18 111.94-74.859-82.703-168.71c-5.6641-11.551-5.1055-25.043 1.4844-36.09l9.6016-16.086c3.4102-5.7188 1.9922-13.074-3.2969-17.113-5.4336-4.1484-13.234-3.3789-17.758 1.75l-23.266 26.379c-11.484 13.027-17.246 30.426-15.797 47.734z" fill="#fff"/>
 <path d="m706.25 560.55-12.074 5.8906c-3.0078 1.4688-4.5586 4.8789-3.6797 8.1133l11.312 41.762c0.54688 2.0195 1.9531 3.6719 3.8594 4.5391s4.0742 0.83203 5.957-0.082031l12.07-5.8906c3.0078-1.4688 4.5586-4.8789 3.6836-8.1133l-11.312-41.762c-1.4141-4.4844-4.793-6.0547-9.8164-4.457z" fill="#fff"/>
 <g clip-path="url(#b)">
  <path d="m977.7 531.55c-0.21094-0.86719-0.97266-2.9805-3.5117-3.8672l-127.82-44.242c-1.3398 0-2.6562 0.44141-3.7461 1.2852l-63.176 48.922c-2.8945 2.2422-2.4297 5.3555-2.2188 6.2578 0.21094 0.89844 1.1797 3.8945 4.7656 4.6094 71.266 14.219 123.37 21.676 142.96 20.449 21.539-1.3477 39.828-16.137 51.379-28.305 1.875-1.9805 1.582-4.2344 1.3711-5.1094z" fill="#fff"/>
 </g>
 <path d="m345.03 828.57c4.7539-2.2266 8.3242-6.3984 9.793-11.445 1.4766-5.0703 0.69531-10.535-2.1406-14.988-4.9336-7.7539-15.016-10.609-23.445-6.6484-13.547 6.3633-25.719 9.5859-36.184 9.5859-7.1836 0-13.344-1.4805-18.832-4.5195-4.3828-2.4297-8.1445-5.5-11.281-9.1523-7.207 10.82-13.523 21.809-18.879 32.703 3.7891 3.1406 7.9492 5.9766 12.426 8.4609 23.973 13.293 54.492 11.938 88.543-3.9961z" fill="#fff"/>
 <path d="m717.69 439.84c4.5391-4.7266 8.4883-9.207 11.852-13.391l-45.363-24.973c-5.5039-3.0273-12.016-2.9297-17.422 0.26562-5.4062 3.1953-8.6367 8.8555-8.6367 15.137v68.512l54.879-36.703c0.66406-3.2344 2.2422-6.2969 4.6914-8.8477z" fill="#fff"/>
 <path d="m725.51 454.49c0.34375 0.80078 1.7227 3.418 5.168 3.418h17.645c11.328 0 22.48-3.0234 32.262-8.7461l47.414-27.758c5.4492-3.1914 9.0781-8.6094 9.9531-14.863l19.949-142.66c0.79687-5.6953-1.3867-11.262-5.8398-14.895-2.9727-2.4297-6.5898-3.6914-10.281-3.6914-1.8398 0-3.6992 0.3125-5.5078 0.95312-28.91 10.258-48.09 21.965-55.453 33.848-10 16.137-14.871 51.27-19.168 82.27-3.4023 24.539-6.3398 45.73-11.551 55.766-4.4023 8.4766-12.297 18.668-23.477 30.297-2.375 2.4766-1.4531 5.2695-1.1133 6.0664z" fill="#fff"/>
 <path d="m337.29 873.02 106.24-82.207-7.1133-26.258c-2.4258-8.957 1.8672-18.414 10.207-22.484l12.07-5.8906c5.2109-2.5469 11.23-2.6289 16.512-0.23047 5.2812 2.3984 9.1797 6.9844 10.695 12.578l2.125 7.8516 15.699-12.148c-1.332-4.8008-2.0742-10.129-2.0742-15.777 0-21.809 10.953-38.891 24.938-38.891 9.5664 0 17.711 7.9922 21.906 20.023l15.148-11.723c-1.3164-4.7773-2.0469-10.07-2.0469-15.684 0-21.809 10.953-38.891 24.938-38.891 9.5391 0 17.668 7.9531 21.871 19.934l15.156-11.727c-1.3008-4.75-2.0195-10.012-2.0195-15.59 0-21.809 10.953-38.891 24.938-38.891 9.5156 0 17.625 7.918 21.84 19.844l17.195-13.305-6.9766-25.758c-2.4258-8.957 1.8672-18.414 10.207-22.484l12.074-5.8906c5.2109-2.5469 11.23-2.6289 16.512-0.23047 5.2812 2.3984 9.1797 6.9844 10.695 12.582l1.9922 7.3477 35.012-27.09c-1.3555-6.918 1.2148-13.828 6.832-18.176l63.172-48.922c4.9805-3.8594 11.5-4.918 17.445-2.8438l31.234 10.902c5.375-13.211 9.8086-27.273 13.188-41.879 0.82422-3.5586-0.015625-7.25-2.3008-10.125-2.3125-2.9102-5.7695-4.5781-9.4844-4.5781h-43.656c-2.0938 2.1914-4.5078 4.1094-7.2031 5.6875l-47.414 27.758c-11.676 6.832-24.992 10.445-38.52 10.445h-17.645c-6.3477 0-11.945-3.1406-15.207-8.3516l-375.02 250.79c-28.027 18.742-51.57 42.641-70.102 68.016 2.5078 3.7266 5.75 6.6875 9.8633 8.9648 3.6055 1.9961 7.8047 2.9688 12.828 2.9688 8.6289 0 19.031-2.8281 30.914-8.4102 14.055-6.6055 30.891-1.7852 39.164 11.207 4.75 7.4609 6.0547 16.609 3.5859 25.102-2.4648 8.4727-8.4531 15.469-16.434 19.207-20.23 9.4688-39.516 14.27-57.316 14.27-15.434 0-29.73-3.582-42.488-10.652-4.1719-2.3125-8.082-4.9258-11.754-7.7539-3.7617 8.6719-6.9023 17.215-9.3984 25.492l13.328 10.805c27.609 22.391 66.531 22.828 94.645 1.0703z" fill="#fff"/>
 <path d="m633.94 635.91c0 15.168 6.625 26.504 12.551 26.504 5.9219 0 12.551-11.336 12.551-26.504s-6.625-26.504-12.551-26.504c-5.9219 0-12.551 11.336-12.551 26.504z" fill="#fff"/>
 <path d="m470.09 747.23c-0.92188-0.41797-1.9062-0.62891-2.8906-0.62891-1.0469 0-2.0977 0.23828-3.0664 0.71094l-12.074 5.8906c-3.0078 1.4688-4.5586 4.8789-3.6797 8.1133l11.312 41.762c0.54688 2.0195 1.9531 3.6719 3.8594 4.5391 1.9062 0.86719 4.0742 0.83594 5.957-0.082032l12.07-5.8945c3.0078-1.4688 4.5547-4.8789 3.6797-8.1094l-11.312-41.762c-0.54688-2.0195-1.9531-3.6719-3.8555-4.5391z" fill="#fff"/>
 <path d="m956.19 749.45-41.23 7.582c-12.195 2.2422-24.531 2.0898-36.668-0.46484l-211.45-44.414-137.91 111.36 327.45 8.7773c15.086 0.41016 29.898-3.5547 42.785-11.449l68.336-41.871c7.2109-4.418 9.7695-13.734 5.8203-21.215-3.2969-6.2422-10.176-9.5781-17.129-8.3047z" fill="#fff"/>
 <g clip-path="url(#a)">
  <path d="m827.35 565.7c-17.535-3.1094-34.316-6.3477-47.781-9.0312-3.1094-0.62109-5.8984-1.9688-8.207-3.875l-37.84 29.277 5.8164 21.465c2.4258 8.957-1.8672 18.414-10.207 22.484l-12.074 5.8906c-5.6445 1.7422-11.16 1.9102-16.512 0.23047-5.2812-2.3984-9.1797-6.9844-10.695-12.578l-0.82812-3.0586-17.852 13.812c0.16016 1.8242 0.25 3.6875 0.25 5.5898 0 21.809-10.953 38.891-24.938 38.891-7.082 0-13.383-4.3867-17.879-11.539l-17.367 13.438c0.15625 1.7891 0.24219 3.6172 0.24219 5.4805 0 21.809-10.953 38.891-24.938 38.891-7.0547 0-13.336-4.3516-17.832-11.461l-17.406 13.469c0.14844 1.7539 0.23047 3.543 0.23047 5.3711 0 21.809-10.953 38.891-24.938 38.891-7.0312 0-13.293-4.3203-17.785-11.387l-17.277 13.367 5.6797 20.965c2.4258 8.957-1.8672 18.414-10.207 22.484l-12.07 5.8945c-5.9961 1.5938-11.547 1.8164-16.508 0.23047-5.2812-2.3984-9.1797-6.9844-10.699-12.582l-0.69141-2.5586-102.16 79.055c-16.059 12.43-35.156 18.625-54.234 18.625-19.746 0-39.469-6.6367-55.797-19.871l-8.9961-7.293c-1.4492 6.3945-2.4961 12.582-3.0859 18.453-2.293 22.902 1.8398 40.398 11.961 50.59 34.668 34.93 145.45-15.59 228.2-82.422l350.77-283.26c4.7148-3.793 9.2656-7.8008 13.652-11.93z" fill="#fff"/>
 </g>
 <path d="m573.99 682.18c0 15.168 6.625 26.504 12.551 26.504 5.9219 0 12.551-11.336 12.551-26.504 0-15.168-6.625-26.504-12.551-26.504s-12.551 11.336-12.551 26.504z" fill="#fff"/>
 <path d="m514.04 728.45c0 15.168 6.625 26.504 12.551 26.504 5.9219 0 12.551-11.336 12.551-26.504s-6.625-26.504-12.551-26.504c-5.9219 0-12.551 11.336-12.551 26.504z" fill="#fff"/>
</svg>
