<svg width="40" height="40" id="Layer_1" data-name="Layer 1" xmlns="http://www.w3.org/2000/svg" viewBox="0 0 500 500">
  <defs>
    <style>
      .cls-1 {
        fill: #cc3737;
      }

      .cls-2 {
        fill: none;
        stroke: #fff;
        stroke-linecap: round;
        stroke-miterlimit: 10;
        stroke-width: 16px;
      }
    </style>
  </defs>
  <title>sentiment</title>
  <path class="cls-1" d="M500,250A250,250,0,1,1,0,250C0,111.93,111.93,0,250,0S500,111.93,500,250Z" />
  <path class="cls-2" d="M275.6,273.62l-34.66-73.86a9,9,0,0,0-8.87-5.16c-12.51.95-36,5.1-69.79,21-33.43,15.68-51.6,30.9-60.44,40A9.64,9.64,0,0,0,100,266.35l34.47,73.47a97,97,0,0,0,106.73,54,17.62,17.62,0,0,0,7.67-3.6A97,97,0,0,0,275.6,273.62Z" />
  <path class="cls-2" d="M244,309.55c-19,47.86-61.56,26.91-61.56,26.91" />
  <path class="cls-2" d="M146.38,295.11s7.18-22,28.72-14.12" />
  <path class="cls-2" d="M204.05,270.9s7.18-22,28.72-14.12" />
  <path class="cls-2" d="M286.71,338.65a96.88,96.88,0,0,0,17.15,6.55,17.62,17.62,0,0,0,8.47.23,97,97,0,0,0,76.28-92.11l2.27-81.56a9,9,0,0,0-5.6-8.6c-11.6-4.78-34.43-11.63-71.76-12.67-36.91-1-60,4.39-72,8.52a9.64,9.64,0,0,0-6.49,8.86l-.79,24.8" />
  <path class="cls-2" d="M277.37,277.63c35.89-36.93,67.17.4,67.17.4" />
  <path class="cls-2" d="M357.27,214s-14.88,17.75-31.92,2.38" />
  <path class="cls-2" d="M286.71,215.88s-14.88,17.75-31.92,2.38" />
</svg>