<?xml version="1.0" encoding="UTF-8"?>
<svg width="40" height="40" version="1.1" viewBox="0 0 1200 1200" xmlns="http://www.w3.org/2000/svg">
 <g>
  <path d="m1200 600c0 214.36-114.36 412.44-300 519.62-185.64 107.18-414.36 107.18-600 0-185.64-107.18-300-305.26-300-519.62s114.36-412.44 300-519.62c185.64-107.18 414.36-107.18 600 0 185.64 107.18 300 305.26 300 519.62" fill="#901b29"/>
  <path d="m907.01 233.95h-614.02c-32.379 0.035156-59.004 26.66-59.039 59.039v448.71c0.035156 32.375 26.66 59.004 59.039 59.039h378.2c1.3125 20.688 15.305 38.531 35.082 44.754v108.75c0 6.4844 5.3242 11.809 11.809 11.809 1.5 0 2.9883-0.28516 4.3945-0.83984l54.645-21.867 54.648 21.867c1.4062 0.55469 2.8945 0.83984 4.3945 0.83984 6.4805 0 11.805-5.3242 11.805-11.809v-108.75c19.77-6.2344 33.75-24.066 35.082-44.754h23.961c32.375-0.035156 59.004-26.664 59.039-59.039v-448.71c-0.035156-32.379-26.664-59.004-59.039-59.039zm-23.465 453.56c-0.011719-0.40234-0.15234-0.78125-0.15234-1.1914-0.046875-27.953-23.062-50.918-51.012-50.895-7.6406-0.26172-14.891-3.4609-20.227-8.9375-0.86328-0.82812-1.8789-1.4062-2.7852-2.1484-18.574-15.719-46.062-15.684-64.59 0.070312-0.88672 0.71875-1.8672 1.2852-2.6953 2.0898-5.3711 5.4883-12.668 8.6914-20.344 8.9258-27.949 0.046875-50.914 23.062-50.891 51.012-0.26172 7.6406-3.4609 14.902-8.9414 20.238-0.35156 0.37891-0.60156 0.82812-0.94531 1.2031-1.3438 1.4766-2.6094 3.0352-3.7656 4.6523-0.31641 0.44922-0.66016 0.86328-0.94531 1.3242-0.29297 0.44922-0.53125 0.89844-0.8125 1.3438-1.1328 1.8555-2.1367 3.7812-3.0117 5.7539-0.23828 0.51953-0.51953 1-0.73438 1.5352l-0.17578 0.38672c-0.91016 2.2812-1.6523 4.6289-2.2188 7.0156h-298.46c-4.7578-23.121-22.918-41.281-46.039-46.039v-333.01c23.121-4.7578 41.281-22.918 46.039-46.039h498.32c4.7578 23.121 22.918 41.281 46.039 46.039v332.99c-4.0039 0.8125-7.9102 2.043-11.656 3.6836zm-102.03 232.14c-2.8242-1.1211-5.9648-1.1211-8.7852 0l-42.84 17.145v-87.496c0.31641 0.09375 0.63672 0.17578 0.95703 0.28516 1.3086 0.46875 2.5742 1.0391 3.8008 1.6992 0.55469 0.29297 1.1211 0.54297 1.6523 0.875 1.7266 1.0625 3.332 2.3125 4.7734 3.7305 9.5391 9.5859 22.527 14.984 36.047 14.984 13.496 0 26.449-5.3633 35.98-14.914 1.4648-1.4297 3.0703-2.6914 4.8047-3.7539 0.54297-0.34375 1.1328-0.60547 1.6914-0.91016 1.2266-0.66016 2.5-1.2305 3.8125-1.6992 0.30469-0.10937 0.63672-0.19141 0.94531-0.28516v87.484zm52.473-95.324c-0.49609 0.046875-1.0156 0.011719-1.6055 0.023438-13.531-0.023438-26.52 5.3711-36.051 14.984-10.719 10.211-27.816 10.176-38.492-0.082032-9.5547-9.5898-22.566-14.961-36.098-14.902-0.48438-0.011719-1.0039 0.023437-1.3477 0-0.41016-0.09375-0.83594-0.15625-1.2617-0.19141-13.992-1.2266-24.82-13.164-24.668-27.203 0.023437-3.5078-0.32812-7.0039-1.0742-10.426-2.0195-9.7188-6.8594-18.637-13.91-25.625-5.125-5.0664-7.9805-11.996-7.9219-19.211 0-1.7852 0.17578-3.5547 0.50781-5.3047 0.11719-0.57812 0.35547-1.1445 0.50781-1.7227 0.24609-1.1094 0.58984-2.207 0.99219-3.2812 0.23438-0.57812 0.56641-1.1094 0.84766-1.6641 0.46094-1.0156 0.99219-2.0078 1.5859-2.9531 0.35156-0.51953 0.78906-0.98047 1.168-1.4883 0.73047-1.0039 1.5352-1.9609 2.3945-2.8711 9.5898-9.5508 14.961-22.562 14.902-36.094 0.023437-14.973 12.352-27.277 27.324-27.277h0.070313c13.535 0.023437 26.523-5.375 36.051-14.984 0.89844-0.83984 1.8438-1.6172 2.8594-2.3164 0.49609-0.37891 0.94141-0.8125 1.4727-1.1445 0.98047-0.58984 1.9961-1.1094 3.0469-1.5586 0.54297-0.24609 1.0508-0.56641 1.6211-0.78125 1.0117-0.35156 2.0391-0.64844 3.1055-0.88281 0.64844-0.16797 1.2734-0.41406 1.9336-0.53125 3.4375-0.51953 6.9336-0.51953 10.379 0.011719 0.37891 0.070312 0.73438 0.21094 1.125 0.30469 1.332 0.27344 2.6562 0.65234 3.9531 1.125 0.33203 0.12891 0.625 0.32812 0.95703 0.46875 1.2891 0.53125 2.5156 1.1602 3.6953 1.8906 0.4375 0.27344 0.81641 0.63672 1.2422 0.94531 1.0977 0.75391 2.1367 1.6055 3.1055 2.5391 9.5508 9.5977 22.562 14.973 36.094 14.914 14.973 0.023437 27.277 12.352 27.277 27.324v0.070312c0.035156 3.1172 0.35547 6.2227 0.96875 9.2812 0.058594 0.31641 0.10547 0.625 0.17969 0.94531 1 5.0742 2.7969 9.9648 5.3359 14.488l0.070312 0.11719 0.082031 0.16406 0.082032 0.09375c2.2227 4.0273 5.0078 7.7109 8.2656 10.961 0.75781 0.80078 1.4648 1.6523 2.1133 2.5469 0.47266 0.60547 1.0039 1.1602 1.418 1.7969 0.49609 0.82812 0.94531 1.6641 1.3594 2.5273 0.35156 0.69531 0.76562 1.3438 1.0508 2.0664 0.35156 0.98047 0.66016 1.9727 0.89844 2.9883 0.1875 0.67188 0.44531 1.3086 0.57813 2.0039 0.32812 1.7383 0.50781 3.5078 0.50781 5.2812 0.058594 7.2383-2.8359 14.203-7.9961 19.281-6.9648 6.918-11.762 15.727-13.793 25.34l-0.011719 0.082032-0.035157 0.13281c-0.011718 0.070313 0.011719 0.12891 0 0.19922-0.73047 3.3984-1.0859 6.8594-1.0742 10.344-0.046875 14.383-11.43 26.414-25.789 27.254zm108.45-82.633c-0.023438 19.422-16 35.398-35.422 35.422h-15.066c1.168-1.3086 2.2773-2.6797 3.3164-4.1094 0.86328-1.0977 1.8555-2.1016 2.6211-3.2578 1.0508-1.6875 1.9961-3.4492 2.8359-5.2656 0.57812-1.1328 1.2852-2.1953 1.7695-3.3789 0.77734-2.0664 1.4297-4.1914 1.9258-6.3398 0.26953-1.0391 0.70703-2.0195 0.90625-3.082 1.3008-6.5547 1.3008-13.309 0.023438-19.859-0.29297-1.4766-0.84766-2.8594-1.2617-4.2891-0.41406-1.6992-0.92188-3.375-1.5117-5.0273-0.69531-1.5117-1.4531-3-2.2891-4.4414-0.73438-1.3945-1.3711-2.8477-2.2344-4.1562-0.85938-1.3242-1.9219-2.4688-2.9141-3.6836-0.36719-0.47266-0.72266-0.95703-1.1094-1.418 4.1211-1.6641 8.5352-2.5273 12.988-2.5391 6.4805 0 11.809-5.3242 11.809-11.809v-354.24c0-6.4844-5.3281-11.809-11.809-11.809-19.426-0.023438-35.402-16-35.426-35.426 0-6.4805-5.3242-11.809-11.809-11.809h-519.55c-6.4844 0-11.809 5.3281-11.809 11.809-0.023438 19.426-16 35.402-35.426 35.426-6.4805 0-11.809 5.3242-11.809 11.809v354.24c0 6.4844 5.3281 11.809 11.809 11.809 19.426 0.023437 35.402 16 35.426 35.426 0 6.4805 5.3242 11.809 11.809 11.809h309.21c0.09375 0.41016 0.26172 0.80078 0.36719 1.2148 0.50781 2.1719 1.1562 4.3086 1.9375 6.3984 0.49609 1.1953 1.2148 2.2812 1.8047 3.4258 0.82812 1.7812 1.7578 3.5195 2.8008 5.1953 0.76563 1.1797 1.7695 2.1953 2.6562 3.293 1.0273 1.418 2.125 2.7773 3.3047 4.0859h-369.32c-19.422-0.023438-35.398-16-35.422-35.422v-448.71c0.023438-19.422 16-35.398 35.422-35.422h614.02c19.422 0.023438 35.398 16 35.422 35.422z" fill="#fff"/>
  <path d="m777.12 682.66c-32.387 0-59.039 26.652-59.039 59.043 0 32.387 26.652 59.039 59.039 59.039 32.391 0 59.043-26.652 59.043-59.039-0.035156-32.379-26.664-59.008-59.043-59.043zm0 94.465c-19.434 0-35.422-15.988-35.422-35.422 0-19.438 15.988-35.426 35.422-35.426 19.438 0 35.426 15.988 35.426 35.426-0.023437 19.422-16 35.398-35.426 35.422z" fill="#fff"/>
  <path d="m434.69 399.27c19.426 0.023437 35.402 16 35.426 35.422 0 6.4844 5.3242 11.809 11.809 11.809 6.4805 0 11.809-5.3242 11.809-11.809-0.035157-27.938-19.875-52.227-47.234-57.848v-13c0-6.4805-5.3242-11.809-11.809-11.809-6.4805 0-11.805 5.3281-11.805 11.809v13c-27.383 5.5977-47.234 29.898-47.234 57.848 0 32.391 26.652 59.043 59.039 59.043 19.438 0 35.426 15.988 35.426 35.422 0 19.438-15.988 35.426-35.426 35.426-19.434 0-35.422-15.988-35.422-35.426 0-6.4805-5.3242-11.809-11.809-11.809s-11.809 5.3281-11.809 11.809c0.035156 27.938 19.875 52.227 47.234 57.848v13c0 6.4844 5.3242 11.809 11.805 11.809 6.4844 0 11.809-5.3242 11.809-11.809v-13c27.383-5.5977 47.234-29.898 47.234-57.848 0-32.387-26.652-59.039-59.043-59.039-19.434 0-35.422-15.988-35.422-35.426 0-19.434 15.988-35.422 35.422-35.422z" fill="#fff"/>
  <path d="m824.36 446.5h-259.78c-6.4844 0-11.809 5.3281-11.809 11.809 0 6.4844 5.3242 11.809 11.809 11.809h259.78c6.4805 0 11.809-5.3242 11.809-11.809 0-6.4805-5.3281-11.809-11.809-11.809z" fill="#fff"/>
  <path d="m824.36 505.54h-259.78c-6.4844 0-11.809 5.3242-11.809 11.805 0 6.4844 5.3242 11.809 11.809 11.809h259.78c6.4805 0 11.809-5.3242 11.809-11.809 0-6.4805-5.3281-11.805-11.809-11.805z" fill="#fff"/>
  <path d="m706.27 564.58h-141.7c-6.4844 0-11.809 5.3242-11.809 11.809 0 6.4805 5.3242 11.809 11.809 11.809h141.7c6.4844 0 11.809-5.3281 11.809-11.809 0-6.4844-5.3242-11.809-11.809-11.809z" fill="#fff"/>
 </g>
</svg>
