<svg xmlns="http://www.w3.org/2000/svg" xmlns:xlink="http://www.w3.org/1999/xlink" width="40" height="40" viewBox="0 0 100 100">
  <circle stroke="none" fill="#65c456" r="48%" cx="50%" cy="50%"></circle>
  <g transform="translate(50 50) scale(0.9 0.9) rotate(0) translate(-48 -45)" style="fill:#ffffff">
        <path d="M50.226,48.508c1.98-1.006,3.335-3.059,3.335-5.432c0-3.363-2.725-6.088-6.088-6.088c-3.361,0-6.089,2.725-6.089,6.092   c0,2.367,1.358,4.422,3.335,5.428c-2.715,0.822-4.885,2.836-5.843,5.402h17.192C55.109,51.344,52.94,49.332,50.226,48.508z"></path>
        <path d="M81.5,38.557c-3.056,0-5.93,1.191-8.092,3.352c-1.048,1.047-1.84,2.252-2.396,3.537l-3.685-0.455   c-0.1-4.396-1.606-8.551-4.32-11.939l6.258-6.459c1.84,1.201,3.987,1.852,6.234,1.852c3.057,0,5.93-1.191,8.091-3.354   c4.463-4.461,4.463-11.721,0-16.182c-2.161-2.16-5.034-3.352-8.091-3.352c-3.056,0-5.93,1.191-8.092,3.352   c-3.821,3.82-4.358,9.691-1.634,14.102l-6.361,6.564c-3.428-2.588-7.57-4.008-11.94-4.008c-5.31,0-10.303,2.068-14.061,5.822   c-0.177,0.178-0.329,0.369-0.497,0.551l-3.067-2.084c1.984-4.24,1.241-9.451-2.257-12.947c-2.161-2.16-5.034-3.352-8.091-3.352   c-3.056,0-5.93,1.191-8.092,3.352c-4.461,4.461-4.461,11.721,0,16.182c2.162,2.162,5.036,3.354,8.092,3.354   c2.692,0,5.241-0.926,7.287-2.623l3.202,2.176c-2.469,4.57-3.016,9.904-1.646,14.818l-5.623,2.43   c-0.341-0.465-0.709-0.916-1.129-1.336c-2.161-2.16-5.034-3.352-8.091-3.352c-3.056,0-5.93,1.191-8.092,3.352   c-4.461,4.461-4.461,11.721,0,16.182c2.162,2.162,5.036,3.354,8.092,3.354c3.057,0,5.93-1.191,8.091-3.354   c2.787-2.785,3.833-6.662,3.14-10.268l5.563-2.404c0.847,1.461,1.871,2.844,3.119,4.092c1.595,1.596,3.423,2.865,5.393,3.822   l-1.153,3.283c-0.381-0.039-0.764-0.059-1.151-0.059c-3.056,0-5.93,1.191-8.092,3.352c-4.461,4.461-4.461,11.721,0,16.182   c2.162,2.162,5.036,3.354,8.092,3.354c3.057,0,5.93-1.191,8.091-3.354c4.463-4.461,4.463-11.721,0-16.182   c-0.668-0.668-1.41-1.23-2.197-1.707l1.144-3.254c1.282,0.256,2.599,0.389,3.936,0.389c5.311,0,10.305-2.068,14.061-5.826   c2.663-2.662,4.457-5.957,5.285-9.545l3.262,0.404c0.09,2.805,1.191,5.584,3.328,7.721c2.162,2.162,5.036,3.354,8.092,3.354   c3.057,0,5.93-1.191,8.091-3.354c4.463-4.461,4.463-11.721,0-16.182C87.43,39.748,84.557,38.557,81.5,38.557z M13.841,30.568   c0.631-1.689,2.06-3.016,3.846-3.557c-1.3-0.662-2.194-2.014-2.194-3.572c0-2.217,1.795-4.01,4.008-4.01s4.007,1.793,4.007,4.008   c0,1.561-0.892,2.912-2.195,3.574c1.788,0.543,3.215,1.867,3.846,3.557H13.841z M7.841,65.568c0.631-1.689,2.06-3.016,3.846-3.557   c-1.3-0.662-2.194-2.014-2.194-3.572c0-2.217,1.795-4.01,4.008-4.01s4.007,1.793,4.007,4.008c0,1.561-0.892,2.912-2.195,3.574   c1.788,0.543,3.215,1.867,3.846,3.557H7.841z M30.841,83.568c0.631-1.689,2.06-3.016,3.846-3.557   c-1.3-0.662-2.194-2.014-2.194-3.572c0-2.217,1.795-4.01,4.008-4.01s4.007,1.793,4.007,4.008c0,1.561-0.892,2.912-2.195,3.574   c1.788,0.543,3.215,1.867,3.846,3.557H30.841z M73.687,19.012c-1.3-0.662-2.194-2.014-2.194-3.572c0-2.217,1.795-4.01,4.008-4.01   s4.007,1.793,4.007,4.008c0,1.561-0.892,2.912-2.195,3.574c1.788,0.543,3.215,1.867,3.846,3.557H69.841   C70.472,20.879,71.9,19.553,73.687,19.012z M57.998,55.975c-2.813,2.813-6.55,4.361-10.525,4.361   c-3.975,0-7.713-1.549-10.525-4.361c-5.803-5.803-5.803-15.246-0.001-21.049c2.813-2.811,6.552-4.359,10.526-4.359   c3.976,0,7.714,1.549,10.525,4.357c2.807,2.807,4.353,6.545,4.353,10.525C62.351,49.432,60.805,53.168,57.998,55.975z    M75.841,55.568c0.631-1.689,2.06-3.016,3.846-3.557c-1.3-0.662-2.194-2.014-2.194-3.572c0-2.217,1.795-4.01,4.008-4.01   s4.007,1.793,4.007,4.008c0,1.561-0.892,2.912-2.195,3.574c1.788,0.543,3.215,1.867,3.846,3.557H75.841z"></path>
  </g>
</svg>