<svg xmlns="http://www.w3.org/2000/svg" xmlns:xlink="http://www.w3.org/1999/xlink" width="40" height="40" viewBox="0 0 100 100">
  <circle stroke="none" fill="#84a800" r="48%" cx="50%" cy="50%"></circle>
  <g transform="translate(50 50) scale(1.2 1.2) rotate(0) translate(-32 -35)" style="fill:#ffffff">
      <path d="M57,58H7a5.0059,5.0059,0,0,1-5-5,2.0027,2.0027,0,0,1,2-2H24a1,1,0,0,1,.8945.5527l1,2a1,1,0,1,1-1.789.8946L23.3818,53H4a3.0033,3.0033,0,0,0,3,3H57a3.0033,3.0033,0,0,0,3-3H40.6182l-.7237,1.4473a1,1,0,0,1-1.789-.8946l1-2A1,1,0,0,1,40,51H60a2.0027,2.0027,0,0,1,2,2A5.0059,5.0059,0,0,1,57,58Z"></path>
      <path d="M36,53H28a1,1,0,0,1,0-2h8a1,1,0,0,1,0,2Z"></path>
      <path d="M8,49a1,1,0,0,1-1-1V21a4.0039,4.0039,0,0,1,4-4h1a1,1,0,0,1,0,2H11a2.0027,2.0027,0,0,0-2,2V48A1,1,0,0,1,8,49Z"></path>
      <path d="M56,49a1,1,0,0,1-1-1V21a2.0027,2.0027,0,0,0-2-2H52a1,1,0,0,1,0-2h1a4.0039,4.0039,0,0,1,4,4V48A1,1,0,0,1,56,49Z"></path>
      <path d="M37,36a1,1,0,0,1-1-1V32.8027A2.8052,2.8052,0,0,0,33.1973,30H30.8027A2.8052,2.8052,0,0,0,28,32.8027V35a1,1,0,0,1-2,0V32.8027A4.8079,4.8079,0,0,1,30.8027,28h2.3946A4.8079,4.8079,0,0,1,38,32.8027V35A1,1,0,0,1,37,36Z"></path>
      <path d="M32,26a4,4,0,1,1,4-4A4.0039,4.0039,0,0,1,32,26Zm0-6a2,2,0,1,0,2,2A2.0027,2.0027,0,0,0,32,20Z"></path>
      <path d="M32,38A12,12,0,1,1,44,26,12.0131,12.0131,0,0,1,32,38Zm0-22A10,10,0,1,0,42,26,10.0117,10.0117,0,0,0,32,16Z"></path>
      <path d="M32,11a3,3,0,1,1,3-3A3.0033,3.0033,0,0,1,32,11Zm0-4a1,1,0,1,0,1,1A1.0006,1.0006,0,0,0,32,7Z"></path>
      <path d="M32,47a3,3,0,1,1,3-3A3.0033,3.0033,0,0,1,32,47Zm0-4a1,1,0,1,0,1,1A1.0006,1.0006,0,0,0,32,43Z"></path>
      <path d="M44.7275,16.2725A3.0005,3.0005,0,0,1,42.6064,11.15v-.001a3,3,0,1,1,2.1211,5.1231Zm-.707-3.708a1.0026,1.0026,0,0,0,0,1.415,1.0224,1.0224,0,0,0,1.4131,0,1,1,0,1,0-1.4131-1.415Z"></path>
      <path d="M19.2715,41.7266a2.9986,2.9986,0,0,1-2.1221-5.12h.001a3.0007,3.0007,0,1,1,2.1211,5.12Zm-.7061-3.7061a1,1,0,1,0,1.4131,0,1.0008,1.0008,0,0,0-1.4131,0Z"></path>
      <path d="M19.2715,16.27a3,3,0,1,1,2.1221-5.1211l.0009.001a2.9985,2.9985,0,0,1-2.123,5.12Zm0-3.998a1,1,0,1,0,.708.292A.9949.9949,0,0,0,19.2715,12.2725Z"></path>
      <path d="M44.7275,41.7266a2.9981,2.9981,0,0,1-2.1211-5.12,3.0727,3.0727,0,0,1,4.2422,0h.001a2.9991,2.9991,0,0,1-2.1221,5.12Zm0-3.9991a1.0005,1.0005,0,1,0,.7071.293h-.001A.9876.9876,0,0,0,44.7275,37.7275Z"></path>
      <path d="M50,29a3,3,0,1,1,3-3A3.0033,3.0033,0,0,1,50,29Zm0-4a1,1,0,1,0,1,1A1.0006,1.0006,0,0,0,50,25Z"></path>
      <path d="M14,29a3,3,0,1,1,3-3A3.0033,3.0033,0,0,1,14,29Zm0-4a1,1,0,1,0,1,1A1.0006,1.0006,0,0,0,14,25Z"></path>
      <path d="M24,11a1,1,0,0,1-.707-1.707A7.8823,7.8823,0,0,1,28.8281,7H30a1,1,0,0,1,0,2H28.8281a5.8686,5.8686,0,0,0-4.1211,1.707A.9967.9967,0,0,1,24,11Z"></path>
      <path d="M35.1719,45H34a1,1,0,0,1,0-2h1.1719a5.8686,5.8686,0,0,0,4.1211-1.707,1,1,0,0,1,1.414,1.414A7.8823,7.8823,0,0,1,35.1719,45Z"></path>
      <path d="M15.0293,21.3428a1,1,0,0,1-1-1,7.8824,7.8824,0,0,1,2.293-5.5352L17.15,13.98a1,1,0,0,1,1.4141,1.4141l-.8282.8281a5.8684,5.8684,0,0,0-1.707,4.1211A1,1,0,0,1,15.0293,21.3428Z"></path>
      <path d="M46.1416,38.3135a1,1,0,0,1-.707-1.708l.8291-.8282a5.8643,5.8643,0,0,0,1.707-4.12,1,1,0,1,1,2,0,7.8824,7.8824,0,0,1-2.293,5.5352l-.8291.8291A1,1,0,0,1,46.1416,38.3135Z"></path>
      <path d="M16,35a.9967.9967,0,0,1-.707-.293A7.8823,7.8823,0,0,1,13,29.1719V28a1,1,0,0,1,2,0v1.1719a5.8686,5.8686,0,0,0,1.707,4.1211A1,1,0,0,1,16,35Z"></path>
      <path d="M50,25a1,1,0,0,1-1-1V22.8281a5.8686,5.8686,0,0,0-1.707-4.1211,1,1,0,0,1,1.414-1.414A7.8823,7.8823,0,0,1,51,22.8281V24A1,1,0,0,1,50,25Z"></path>
      <path d="M26.3428,43.9707a7.8824,7.8824,0,0,1-5.5352-2.293L19.98,40.85a1,1,0,0,1,1.4141-1.4141l.8281.8282a5.8684,5.8684,0,0,0,4.1211,1.707,1,1,0,1,1,0,2Z"></path>
      <path d="M43.3135,12.8574a.997.997,0,0,1-.7071-.2929l-.8281-.8282a5.8684,5.8684,0,0,0-4.1211-1.707,1,1,0,0,1,0-2,7.8824,7.8824,0,0,1,5.5352,2.293l.8281.8281a1,1,0,0,1-.707,1.707Z"></path>
  </g>
</svg>