<?xml version="1.0" encoding="UTF-8"?>
<svg width="40" height="40" version="1.1" viewBox="0 0 100 100" xmlns="http://www.w3.org/2000/svg">
 <g>
  <path d="m100 50c0 27.613-22.387 50-50 50s-50-22.387-50-50 22.387-50 50-50 50 22.387 50 50" fill="#007335"/>
  <path d="m30.992 74.109v-48.789c0-1.1367 1.1367-1.1367 1.1367-1.1367h26.098l10.211 10.215v39.715c0 1.1328-1.1328 1.1328-1.1328 1.1328h-35.176s-1.1367 0-1.1367-1.1367zm1.7031-1.6328v-45.523c0-1.0664 1.0352-1.0664 1.0352-1.0664h22.793v9.0781c0 1.1367 1.1367 1.1367 1.1367 1.1367h9.0781v36.375c0 1.0703-1.0352 1.0703-1.0352 1.0703h-31.973s-1.0352 0-1.0352-1.0703zm2.2695-31.84v29.504h29.504v-29.504zm1.7031 5.1094v2.2695h5.6719v-2.2695zm6.8086 0v2.2695h5.6719v-2.2695zm6.8086 0v2.2695h5.6719v-2.2695zm6.8047 0v2.2695h5.6758v-2.2695zm-20.422 3.4023v2.2695h5.6719v-2.2695zm6.8086 0v2.2695h5.6719v-2.2695zm6.8086 0v2.2695h5.6719v-2.2695zm6.8047 0v2.2695h5.6758v-2.2695zm-20.422 3.4062v2.2695h5.6719v-2.2695zm6.8086 0v2.2695h5.6719v-2.2695zm6.8086 0v2.2695h5.6719v-2.2695zm6.8047 0v2.2695h5.6758v-2.2695zm-20.422 3.4023v2.2695h5.6719v-2.2695zm6.8086 0v2.2695h5.6719v-2.2695zm6.8086 0v2.2695h5.6719v-2.2695zm6.8047 0v2.2695h5.6758v-2.2695zm-20.422 3.4023v2.2695h5.6719v-2.2695zm6.8086 0v2.2695h5.6719v-2.2695zm6.8086 0v2.2695h5.6719v-2.2695zm6.8047 0v2.2695h5.6758v-2.2695zm-20.422 3.4062v2.2695h5.6719v-2.2695zm6.8086 0v2.2695h5.6719v-2.2695zm6.8086 0v2.2695h5.6719v-2.2695zm6.8047 0v2.2695h5.6758v-2.2695zm-20.422 3.4023v2.2695h5.6719v-2.2695zm6.8086 0v2.2695h5.6719v-2.2695zm6.8086 0v2.2695h5.6719v-2.2695zm6.8047 0v2.2695h5.6758v-2.2695z" fill="#fff" fill-rule="evenodd"/>
 </g>
</svg>
