<svg xmlns="http://www.w3.org/2000/svg" xmlns:xlink="http://www.w3.org/1999/xlink" width="40" height="40" viewBox="0 0 100 100">
  <circle stroke="none" fill="#57573f" r="48%" cx="50%" cy="50%"></circle>
  <g transform="translate(50 50) scale(1.4 1.4) rotate(0) translate(-25 -25)" style="fill:#ffffff">
        <path d="M40.403,27.44c-0.623-0.532-1.413-0.713-2.167-0.608c0,0,0.025-13.26,0.025-13.349c0-7.411-6.014-13.418-13.416-13.418   c-7.402,0-13.398,6.008-13.398,13.418c0,0.141-0.044,13.318-0.044,13.318c-0.718-0.066-1.376,0.136-1.969,0.639   c-1.144,0.974-1.285,2.674-0.349,3.835L24.975,50.4l15.889-19.331C41.643,29.92,41.488,28.363,40.403,27.44z M15.538,16.03   c0-1.041,0.84-1.881,1.881-1.881h4.23c1.04,0,1.88,0.84,1.88,1.881c0,1.039-0.84,1.88-1.88,1.88h-4.23   C16.378,17.91,15.538,17.069,15.538,16.03z M24.861,29.263c-1.856,0-3.362-1.506-3.362-3.361c0-1.854,1.506-3.36,3.362-3.36   c1.856,0,3.363,1.506,3.363,3.36C28.224,27.757,26.717,29.263,24.861,29.263z M32.147,17.91h-4.231c-1.04,0-1.879-0.841-1.879-1.88   c0-1.041,0.839-1.881,1.879-1.881h4.231c1.041,0,1.881,0.84,1.881,1.881C34.028,17.069,33.188,17.91,32.147,17.91z"></path>
  </g>
</svg>