<?xml version="1.0" encoding="UTF-8"?>
<svg width="40" height="40" version="1.1" viewBox="0 0 100 100" xmlns="http://www.w3.org/2000/svg">
 <g>
  <path d="m100 50c0 27.613-22.387 50-50 50s-50-22.387-50-50 22.387-50 50-50 50 22.387 50 50" fill="#007335"/>
  <path d="m50.691 48.551h-1.4492c-0.50391 0-0.94531-0.1875-1.2578-0.56641-0.31641-0.37891-0.50391-0.88281-0.44141-1.3242 0.0625-0.88281 0.88281-1.5742 1.8281-1.5742h1.6992c0.56641 0 1.0078 0.37891 1.1328 0.94531 0.0625 0.25 0.25 0.37891 0.50391 0.37891h1.8906c0.125 0 0.31641-0.0625 0.37891-0.1875 0.125-0.125 0.125-0.25 0.125-0.37891-0.1875-1.9531-1.7617-3.4648-3.7148-3.6523v-1.7617c0-0.31641-0.25-0.50391-0.50391-0.50391h-1.8906c-0.31641 0-0.50391 0.25-0.50391 0.50391v1.7617c-2.457 0.37891-4.1562 2.582-3.9062 5.1016 0.25 2.3945 2.3945 4.2188 4.8477 4.2188h1.2578c0.50391 0 0.94531 0.1875 1.2578 0.56641 0.31641 0.37891 0.50391 0.88281 0.44141 1.3242-0.0625 0.88281-0.88281 1.5742-1.8281 1.5742h-1.6992c-0.56641 0-1.0078-0.37891-1.1328-0.94531-0.0625-0.25-0.25-0.37891-0.50391-0.37891h-1.8906c-0.125 0-0.31641 0.0625-0.37891 0.1875-0.125 0.125-0.125 0.25-0.125 0.37891 0.1875 1.9531 1.7617 3.4648 3.7148 3.6523v1.7617c0 0.31641 0.25 0.50391 0.50391 0.50391h1.8906c0.31641 0 0.50391-0.25 0.50391-0.50391v-1.8281c2.1406-0.44141 3.7148-2.0781 3.9062-4.1562 0.125-1.3242-0.31641-2.6445-1.1953-3.5898-0.87891-1.0039-2.1367-1.5078-3.4609-1.5078z" fill="#fff"/>
  <path d="m79.473 59.07-4.7852-4.7852c-0.62891-0.62891-1.5742-0.62891-2.2031 0s-0.62891 1.5742 0 2.2031l2.0781 2.0781h-10.395c1.5117-2.5195 2.3945-5.4805 2.3945-8.6289 0-9.1953-7.4297-16.625-16.625-16.625-4.5977 0-8.7539 1.8906-11.777 4.9141l-12.723-0.003906 2.0781-2.0781c0.62891-0.62891 0.62891-1.5742 0-2.2031s-1.5742-0.62891-2.2031 0l-4.7852 4.7852c-0.62891 0.62891-0.62891 1.5742 0 2.2031l4.7852 4.7852c0.31641 0.31641 0.69141 0.44141 1.1328 0.44141 0.44141 0 0.82031-0.125 1.1328-0.44141 0.62891-0.62891 0.62891-1.5742 0-2.2031l-2.1406-2.1406h10.391c-1.5117 2.5195-2.3945 5.4805-2.3945 8.6289 0 9.1953 7.4297 16.625 16.625 16.625 4.5977 0 8.7539-1.8906 11.777-4.9141l12.723 0.003906-2.0781 2.0781c-0.62891 0.62891-0.62891 1.5742 0 2.2031 0.31641 0.31641 0.69141 0.44141 1.1328 0.44141 0.44141 0 0.82031-0.125 1.1328-0.44141l4.7852-4.7852c0.50781-0.56641 0.50781-1.5742-0.058594-2.1406zm-29.473 4.4062c-7.4297 0-13.477-6.0469-13.477-13.477s6.0469-13.477 13.477-13.477 13.477 6.0469 13.477 13.477-6.0469 13.477-13.477 13.477z" fill="#fff"/>
 </g>
</svg>
