<svg xmlns="http://www.w3.org/2000/svg" xmlns:xlink="http://www.w3.org/1999/xlink" width="40" height="40" viewBox="0 0 100 100">
  <circle stroke="none" fill="#27620c" r="48%" cx="50%" cy="50%"></circle>
  <g transform="translate(50 50) scale(0.69 0.69) rotate(0) translate(-50 -50)" style="fill:#ffffff">
      <path d="M93.0002441,27.9760742H6.9997559c-1.9296875,0-3.5,1.5703125-3.5,3.5v37.0478516c0,1.9296875,1.5703125,3.5,3.5,3.5  h86.0004883c1.9296875,0,3.5-1.5703125,3.5-3.5V31.4760742C96.5002441,29.5463867,94.9299316,27.9760742,93.0002441,27.9760742z   M93.5002441,68.5239258c0,0.2753906-0.2246094,0.5-0.5,0.5H6.9997559c-0.2758789,0-0.5-0.2246094-0.5-0.5V31.4760742  c0-0.2758789,0.2241211-0.5,0.5-0.5h86.0004883c0.2753906,0,0.5,0.2241211,0.5,0.5V68.5239258z M89.0441895,33.3886719H10.9553223  c-1.378418,0-2.5,1.121582-2.5,2.5v28.222168c0,1.3789063,1.121582,2.5,2.5,2.5h78.0888672c1.3789063,0,2.5-1.1210938,2.5-2.5  v-28.222168C91.5441895,34.5102539,90.4230957,33.3886719,89.0441895,33.3886719z M88.5441895,63.6108398H11.4553223v-27.222168  h77.0888672V63.6108398z M56.4206543,47.7270508h-6.0654297c-1.378418,0-2.5,1.1210938-2.5,2.5v7.6445313  c0,1.3789063,1.121582,2.5,2.5,2.5h6.0654297c1.378418,0,2.5-1.1210938,2.5-2.5v-7.6445313  C58.9206543,48.8481445,57.7990723,47.7270508,56.4206543,47.7270508z M55.9206543,57.371582h-5.0654297v-6.6445313h5.0654297  V57.371582z M63.6633301,47.7270508c-1.378418,0-2.5,1.1210938-2.5,2.5v7.6445313c0,1.3789063,1.121582,2.5,2.5,2.5h6.0654297  c1.378418,0,2.5-1.1210938,2.5-2.5v-7.6445313c0-1.3789063-1.121582-2.5-2.5-2.5H63.6633301z M69.2287598,57.371582h-5.0654297  v-6.6445313h5.0654297V57.371582z M76.9714355,60.371582h6.0654297c1.378418,0,2.5004883-1.1210938,2.5004883-2.5v-7.6445313  c0-1.3789063-1.1220703-2.5-2.5004883-2.5h-6.0654297c-1.378418,0-2.5,1.1210938-2.5,2.5v7.6445313  C74.4714355,59.2504883,75.5930176,60.371582,76.9714355,60.371582z M77.4714355,50.7270508h5.065918v6.6445313h-5.065918  V50.7270508z M16.9626465,60.371582h6.065918c1.378418,0,2.5-1.1210938,2.5-2.5v-7.6445313c0-1.3789063-1.121582-2.5-2.5-2.5  h-6.065918c-1.378418,0-2.5,1.1210938-2.5,2.5v7.6445313C14.4626465,59.2504883,15.5842285,60.371582,16.9626465,60.371582z   M17.4626465,50.7270508h5.065918v6.6445313h-5.065918V50.7270508z M30.2712402,60.371582h6.0654297  c1.378418,0,2.5-1.1210938,2.5-2.5v-7.6445313c0-1.3789063-1.121582-2.5-2.5-2.5h-6.0654297c-1.378418,0-2.5,1.1210938-2.5,2.5  v7.6445313C27.7712402,59.2504883,28.8928223,60.371582,30.2712402,60.371582z M30.7712402,50.7270508h5.0654297v6.6445313  h-5.0654297V50.7270508z M29.166748,41.128418c0-0.828125,0.6713867-1.5,1.5-1.5H69.333252c0.8286133,0,1.5,0.671875,1.5,1.5  s-0.6713867,1.5-1.5,1.5H30.666748C29.8381348,42.628418,29.166748,41.956543,29.166748,41.128418z"></path>
  </g>
</svg>