<?xml version="1.0" encoding="UTF-8"?>
<svg width="40" height="40" version="1.1" viewBox="0 0 1200 1200" xmlns="http://www.w3.org/2000/svg">
 <defs>
  <clipPath id="d">
   <path d="m222.14 765h755.71v107h-755.71z"/>
  </clipPath>
  <clipPath id="c">
   <path d="m222.14 847h755.71v130.86h-755.71z"/>
  </clipPath>
  <clipPath id="b">
   <path d="m222.14 670h755.71v119h-755.71z"/>
  </clipPath>
  <clipPath id="a">
   <path d="m416 222.14h368v311.86h-368z"/>
  </clipPath>
 </defs>
 <path d="m1200 600c0 214.36-114.36 412.44-300 519.62-185.64 107.18-414.36 107.18-600 0-185.64-107.18-300-305.26-300-519.62s114.36-412.44 300-519.62c185.64-107.18 414.36-107.18 600 0 185.64 107.18 300 305.26 300 519.62" fill="#042fad"/>
 <g clip-path="url(#d)">
  <path d="m966.05 777.12c-19.594-0.50391-38.855 5.1328-55.09 16.117-20.195 12.207-43.344 18.656-66.945 18.656-23.598 0-46.746-6.4531-66.941-18.656-16.578-10.156-35.641-15.531-55.082-15.531-19.441 0-38.504 5.375-55.082 15.531-20.25 12.043-43.371 18.402-66.934 18.398-23.559 0-46.684-6.3555-66.934-18.398-16.691-9.8281-35.707-15.008-55.074-15.008-19.371 0-38.387 5.1836-55.078 15.008-20.258 12.02-43.375 18.363-66.93 18.363-23.555 0-46.676-6.3438-66.93-18.363-16.23-10.988-35.488-16.621-55.078-16.117-6.5234 0-11.809-5.2852-11.809-11.809v82.656c0-6.5195 5.2852-11.805 11.809-11.805 23.75-0.47266 47.082 6.2617 66.934 19.309 16.227 10.984 35.484 16.617 55.074 16.113 19.59 0.50391 38.848-5.1289 55.078-16.113 19.848-13.047 43.184-19.781 66.934-19.309 23.746-0.46875 47.078 6.2617 66.926 19.309 16.23 10.984 35.488 16.617 55.082 16.113 19.59 0.50391 38.848-5.1289 55.078-16.113 20.047-12.617 43.25-19.309 66.934-19.309 23.688 0 46.891 6.6914 66.938 19.309 16.445 10.523 35.562 16.113 55.09 16.113 19.523 0 38.641-5.5898 55.086-16.113 19.855-13.047 43.191-19.781 66.945-19.309 6.5195 0 11.809 5.2852 11.809 11.805v-82.656c0 6.5234-5.2891 11.809-11.809 11.809z" fill="#fff"/>
 </g>
 <g clip-path="url(#c)">
  <path d="m966.05 859.78c-19.594-0.50391-38.855 5.1328-55.09 16.117-20.051 12.613-43.254 19.309-66.941 19.309s-46.895-6.6953-66.945-19.309c-16.441-10.523-35.559-16.117-55.082-16.117-19.52 0-38.637 5.5938-55.082 16.117-19.848 13.047-43.184 19.777-66.93 19.309-23.75 0.46875-47.086-6.2617-66.934-19.309-16.23-10.984-35.484-16.621-55.074-16.117-19.594-0.50391-38.852 5.1328-55.078 16.117-19.852 13.047-43.188 19.777-66.934 19.309-23.75 0.46875-47.082-6.2656-66.93-19.309-16.23-10.984-35.488-16.621-55.078-16.117-6.5234 0-11.809-5.2852-11.809-11.809v82.656c0 6.5234 5.2852 11.809 11.809 11.809 19.59-0.50391 38.848 5.1328 55.078 16.117 19.848 13.043 43.18 19.777 66.93 19.309 23.746 0.46875 47.082-6.2617 66.934-19.309 16.227-10.984 35.484-16.621 55.078-16.117 19.59-0.50391 38.844 5.1328 55.074 16.117 19.848 13.047 43.184 19.777 66.934 19.309 23.746 0.46875 47.082-6.2617 66.93-19.309 16.445-10.523 35.562-16.117 55.082-16.117 19.523 0 38.641 5.5938 55.082 16.117 20.051 12.613 43.258 19.309 66.945 19.309s46.891-6.6953 66.941-19.309c16.234-10.984 35.496-16.621 55.09-16.117 6.5195 0 11.809-5.2852 11.809-11.809v-82.656c0 6.5234-5.2891 11.809-11.809 11.809z" fill="#fff"/>
 </g>
 <g clip-path="url(#b)">
  <path d="m966.05 670.85c-23.75-0.47266-47.09 6.2578-66.941 19.305-16.609 10.074-35.664 15.398-55.09 15.398s-38.477-5.3242-55.086-15.395c-20.254-12.039-43.379-18.391-66.938-18.391s-46.684 6.3516-66.938 18.387c-16.609 10.062-35.656 15.383-55.078 15.383-19.418 0-38.469-5.3164-55.078-15.379-20.18-12.238-43.332-18.711-66.93-18.711-23.602 0-46.75 6.4727-66.93 18.707-16.625 10.023-35.668 15.32-55.078 15.32-19.414 0-38.457-5.2969-55.078-15.316-19.852-13.047-43.184-19.781-66.934-19.309-6.5234 0-11.809 5.2852-11.809 11.805v82.656c0-6.5195 5.2852-11.805 11.809-11.805 23.75-0.47266 47.082 6.2617 66.934 19.309 16.566 10.176 35.633 15.566 55.078 15.566 19.441 0 38.508-5.3906 55.074-15.57 20.242-12.066 43.367-18.438 66.934-18.438 23.562 0 46.688 6.3711 66.93 18.441 16.566 10.18 35.633 15.57 55.078 15.57 19.445 0 38.512-5.3906 55.078-15.574 20.246-12.055 43.375-18.422 66.938-18.422 23.562 0.003906 46.691 6.3672 66.938 18.426 16.617 10.039 35.668 15.348 55.086 15.348s38.469-5.3086 55.09-15.352c19.852-13.047 43.191-19.777 66.941-19.305 6.5195 0 11.809 5.2852 11.809 11.805v-82.656c0-6.5195-5.2891-11.805-11.809-11.805z" fill="#fff"/>
 </g>
 <g clip-path="url(#a)">
  <path d="m602.84 493.32 180.19 39.852v-104.38c0-6.2656-2.4883-12.273-6.918-16.699-4.4258-4.4297-10.434-6.918-16.699-6.918h-11.809v-35.422c0.003907-6.2656-2.4844-12.273-6.9141-16.703-4.4297-4.4297-10.438-6.9141-16.703-6.9141h-5.9023v-23.617c0-6.5195-5.2852-11.809-11.809-11.809-6.5195 0-11.809 5.2891-11.809 11.809v23.617h-47.23v-64.945c-0.019531-6.5117-5.2969-11.789-11.809-11.809h-23.617v-23.613h11.809c6.5234 0 11.809-5.2891 11.809-11.809 0-6.5234-5.2852-11.809-11.809-11.809h-47.23c-6.5234 0-11.809 5.2852-11.809 11.809 0 6.5195 5.2852 11.809 11.809 11.809h11.809v23.613h-23.617c-6.5156 0.019531-11.789 5.2969-11.809 11.809v64.945h-47.23v-23.617c0-6.5195-5.2891-11.809-11.809-11.809-6.5234 0-11.809 5.2891-11.809 11.809v23.617h-5.9062c-6.2617 0-12.27 2.4844-16.699 6.9141-4.4297 4.4297-6.918 10.438-6.9141 16.703v35.426l-11.809-0.003906c-6.2656 0-12.273 2.4883-16.703 6.918-4.4258 4.4258-6.9141 10.434-6.9141 16.699v104.5l180.78-39.969c1.6758-0.35547 3.4023-0.35547 5.0781 0zm79.82-29.105h-35.422v-35.426h35.426zm-206.64-94.465h247.97v35.426l-247.97-0.003906zm76.754 94.465h-35.426v-35.426h35.426zm23.617-35.426h47.23v35.426h-47.23z" fill="#fff"/>
 </g>
 <path d="m403.57 667.37c23.461-13.203 50.008-19.941 76.926-19.523 26.918 0.41406 53.242 7.9648 76.285 21.883 12.996 7.9922 27.957 12.223 43.215 12.223 15.262 0 30.219-4.2305 43.219-12.223 46.984-27.844 105.19-28.762 153.03-2.418 0.22266 0.035156 0.44141 0.09375 0.65234 0.17578 14.207-28.809 21.582-60.508 21.547-92.633-0.003907-5.5508-3.8516-10.359-9.2695-11.574l-208.88-46.344-209.47 46.344c-5.418 1.2148-9.2656 6.0234-9.2695 11.574-0.027344 32.121 7.3438 63.82 21.547 92.633 0.14453-0.082031 0.30859-0.12109 0.47266-0.11719zm256.47-70.73c1.4023-6.3633 7.6797-10.398 14.051-9.0352l43.336 9.3867v0.003907c5.8906 1.2891 9.8672 6.8008 9.2305 12.801-0.63281 5.9961-5.6797 10.555-11.711 10.578-0.85547-0.011719-1.707-0.10938-2.5391-0.29688l-43.336-9.3867c-6.3633-1.4023-10.398-7.6797-9.0312-14.051zm-179.36 0.35547 43.336-9.3867-0.003906-0.003907c3.0664-0.67969 6.2812-0.10937 8.9258 1.5859 2.6445 1.6914 4.5078 4.3672 5.1758 7.4375 0.66797 3.0703 0.085937 6.2812-1.6211 8.918-1.7031 2.6406-4.3867 4.4922-7.4609 5.1445l-43.336 9.3867c-0.83203 0.1875-1.6836 0.28516-2.5391 0.29688-6.0312-0.023438-11.074-4.582-11.711-10.578-0.63672-6 3.3398-11.512 9.2305-12.801z" fill="#fff"/>
</svg>
