<svg xmlns="http://www.w3.org/2000/svg" xmlns:xlink="http://www.w3.org/1999/xlink" width="40" height="40" viewBox="0 0 100 100">
  <circle stroke="none" fill="#3c4e5f" r="48%" cx="50%" cy="50%"></circle>
  <g transform="translate(50 50) scale(0.57 0.57) rotate(0) translate(-60 -60)" style="fill:#ffffff">
        <path d="M75.583,0L15.125,0.059C15.118,0.059 15.111,0.059 15.104,0.059C13.03,0.059 11.324,1.765 11.324,3.839C11.324,3.844 11.324,3.849 11.324,3.853L11.324,117.121C11.328,119.192 13.033,120.893 15.104,120.893C15.111,120.893 15.118,120.893 15.125,120.893L105.827,120.893C105.832,120.893 105.836,120.893 105.841,120.893C107.912,120.893 109.617,119.192 109.621,117.121L109.621,34.008C109.621,33.003 109.219,32.038 108.506,31.329L78.263,1.115C77.554,0.402 76.589,0 75.583,0ZM71.818,7.559L71.818,37.803C71.826,39.891 73.525,41.575 75.613,41.567L86.937,41.567L86.937,56.693L34.008,56.693L34.008,7.603L71.818,7.559ZM26.449,7.611L26.449,18.89L18.89,18.89L18.89,7.618L26.449,7.611ZM79.377,12.889L100.497,34.008L79.377,34.008L79.377,12.889ZM18.89,26.449L26.449,26.449L26.449,34.008L18.89,34.008L18.89,26.449ZM18.89,41.567L26.449,41.567L26.449,49.134L18.89,49.134L18.89,41.567ZM94.496,41.567L102.062,41.567L102.062,49.134L94.496,49.134L94.496,41.567ZM18.89,56.693L26.449,56.693L26.449,64.252L18.89,64.252L18.89,56.693ZM94.496,56.693L102.062,56.693L102.062,64.252L94.496,64.252L94.496,56.693ZM34.008,64.252L86.937,64.252L86.937,113.327L34.008,113.327L34.008,64.252ZM18.89,71.818L26.449,71.818L26.449,79.377L18.89,79.377L18.89,71.818ZM94.496,71.818L102.062,71.818L102.062,79.377L94.496,79.377L94.496,71.818ZM18.89,86.937L26.449,86.937L26.449,94.496L18.89,94.496L18.89,86.937ZM94.496,86.937L102.062,86.937L102.062,94.496L94.496,94.496L94.496,86.937ZM18.89,102.062L26.449,102.062L26.449,113.327L18.89,113.327L18.89,102.062ZM94.496,102.062L102.062,102.062L102.062,113.327L94.496,113.327L94.496,102.062Z" style="" fill-rule="nonzero"></path>
  </g>
</svg>