<?xml version="1.0" encoding="UTF-8"?>
<svg width="40" height="40" version="1.1" viewBox="0 0 1200 1200" xmlns="http://www.w3.org/2000/svg">
 <g>
  <path d="m1200 600c0 214.36-114.36 412.44-300 519.62-185.64 107.18-414.36 107.18-600 0-185.64-107.18-300-305.26-300-519.62s114.36-412.44 300-519.62c185.64-107.18 414.36-107.18 600 0 185.64 107.18 300 305.26 300 519.62" fill="#3f6767"/>
  <path d="m493.17 401.57h213.78c8.4727 0 15.23-6.8711 15.23-15.23 0-8.4727-6.8711-15.23-15.23-15.23l-213.78 0.003906c-8.4727 0-15.23 6.8711-15.23 15.23-0.11328 8.3555 6.7578 15.227 15.23 15.227z" fill="#fff"/>
  <path d="m783.21 432.03h-366.41c-8.4727 0-15.23 6.8711-15.23 15.23 0 8.4727 6.8711 15.23 15.23 15.23h366.41c8.4727 0 15.23-6.8711 15.23-15.23 0-8.3594-6.7539-15.23-15.227-15.23z" fill="#fff"/>
  <path d="m783.21 493.17h-366.41c-8.4727 0-15.23 6.8711-15.23 15.23 0 8.4727 6.8711 15.23 15.23 15.23h366.41c8.4727 0 15.23-6.8711 15.23-15.23 0-8.4766-6.7539-15.23-15.227-15.23z" fill="#fff"/>
  <path d="m951.18 233.59h-702.36c-8.3594 0-15.23 6.8711-15.23 15.23v488.58c0 8.4727 6.8711 15.23 15.23 15.23h219.73c0.34375 0.6875 0.80078 1.375 0.91797 1.9453 0.91797 2.9766 0.6875 8.4727 0.45703 13.742-0.57422 10.305-1.1445 23.129 6.5273 33.664 7.7852 10.648 20.152 13.969 30.23 16.602 4.8086 1.2578 10.305 2.75 12.711 4.582 1.2578 0.91797 2.75 2.75 4.2383 4.8086v123.2c0 5.8398 3.3203 11.105 8.4727 13.625 5.1523 2.6328 11.336 2.0625 16.031-1.4883l51.984-38.93 51.984 38.93c2.6328 2.0625 5.9531 3.0898 9.1602 3.0898 2.2891 0 4.6953-0.57422 6.8711-1.6016 5.1523-2.6328 8.4727-7.9023 8.4727-13.625l-0.007812-123.2c1.4883-2.1758 2.9766-4.0078 4.2383-4.9219 2.4062-1.7188 7.9023-3.207 12.711-4.582 9.9609-2.6328 22.441-6.0703 30.23-16.602 7.6719-10.535 6.9844-23.359 6.5273-33.664-0.23047-5.2656-0.57422-10.762 0.45703-13.742 0.23047-0.57422 0.57422-1.2578 0.91797-1.9453h219.73c8.4727 0 15.23-6.8711 15.23-15.23l-0.011719-488.46c-0.22656-8.3594-7.0977-15.23-15.457-15.23zm-221.33 427.44c0-1.6016 0.11328-3.3203 0.23047-4.9219 0.57422-10.305 1.1445-23.129-6.5273-33.664-7.6719-10.648-20.152-13.969-30.23-16.719-4.8086-1.2578-10.305-2.75-12.711-4.582-2.4062-1.7188-5.3828-6.4141-8.0156-10.535-5.6094-8.7031-12.711-19.695-25.305-23.816-12.25-4.0078-24.16 0.57422-33.664 4.2383-5.0391 1.9453-10.191 3.8945-13.512 3.8945-3.3203 0-8.4727-1.9453-13.512-3.8945-9.5039-3.6641-21.41-8.1289-33.664-4.2383-12.711 4.1211-19.695 15-25.305 23.816-2.6328 4.1211-5.7266 8.8164-8.0156 10.535-2.4062 1.832-7.9023 3.207-12.711 4.582-9.9609 2.6328-22.441 6.0703-30.23 16.602-7.6719 10.535-6.9844 23.359-6.5273 33.664 0.11328 1.7188 0.11328 3.3203 0.23047 4.9219l-85.641 0.003907c-6.0703-29.887-29.656-53.473-59.543-59.543v-216.64c29.887-6.0703 53.473-29.656 59.543-59.543h430.53c6.0703 29.887 29.656 53.473 59.543 59.543v216.75c-29.887 6.0703-53.473 29.656-59.543 59.543zm-120.69 232.1c-5.3828-4.1211-12.824-4.0078-18.32 0l-36.641 27.48v-62.977c11.68 3.207 23.129-0.91797 32.289-4.4648 5.0391-1.9453 10.191-3.8945 13.512-3.8945s8.4727 1.9453 13.512 3.8945c6.9844 2.6328 15.113 5.7266 23.703 5.7266 2.8633 0 5.7266-0.45703 8.5859-1.2578v62.973zm105-168.43c-4.6953 5.8398-10.078 12.367-12.711 20.496-2.75 8.3594-2.2891 17.062-1.832 24.734 0.23047 4.582 0.57422 12.367-0.6875 14.199-1.375 1.9453-8.9297 3.8945-13.398 5.1523-7.3281 1.9453-15.801 4.2383-22.785 9.3906-6.9844 5.0391-11.566 12.25-15.688 18.664-2.75 4.2383-6.8711 10.535-9.1602 11.336-1.9453 0.57422-9.3906-2.1758-13.398-3.6641-7.2148-2.75-15.457-5.9531-24.391-5.9531-8.9297 0-17.176 3.0898-24.391 5.9531-4.0078 1.4883-11.566 4.3516-13.398 3.6641-2.2891-0.80078-6.4141-7.0977-9.1602-11.336-4.1211-6.4141-8.8164-13.625-15.688-18.664-6.9844-5.1523-15.344-7.3281-22.785-9.3906-4.4648-1.2578-12.023-3.207-13.398-5.1523-1.375-1.832-0.91797-9.5039-0.6875-14.199 0.34375-7.6719 0.80078-16.375-1.832-24.617-2.6328-8.1289-8.0156-14.656-12.711-20.496-3.3203-4.1211-8.0156-9.8477-8.0156-12.48 0-2.6328 4.582-8.3594 8.0156-12.48 4.6953-5.8398 10.078-12.48 12.711-20.496 2.75-8.3594 2.2891-17.062 1.832-24.734-0.23047-4.582-0.57422-12.367 0.6875-14.199 1.375-1.9453 8.9297-3.8945 13.398-5.1523 7.4414-1.9453 15.801-4.2383 22.785-9.3906 6.9844-5.0391 11.566-12.25 15.688-18.664 2.75-4.2383 6.7539-10.535 9.1602-11.336 2.1758-0.6875 9.3906 2.1758 13.398 3.6641 7.2148 2.75 15.457 5.9531 24.391 5.9531 8.9297 0 17.176-3.0898 24.391-5.9531 4.0078-1.4883 11.449-4.3516 13.398-3.6641 2.2891 0.80078 6.4141 7.0977 9.1602 11.336 4.1211 6.4141 8.8164 13.625 15.688 18.664 6.9844 5.1523 15.457 7.3281 22.785 9.3906 4.4648 1.2578 12.023 3.207 13.398 5.1523 1.375 1.832 0.91797 9.5039 0.6875 14.199-0.34375 7.6719-0.80078 16.375 1.832 24.734 2.6328 8.0156 8.0156 14.656 12.711 20.496 3.4336 4.1211 8.0156 9.8477 8.0156 12.48 0 2.6289-4.6953 8.2422-8.0156 12.363zm221.68-2.5195h-184.69c0.91797-3.0898 1.6016-6.4141 1.6016-9.9609 0-8.0156-2.9766-14.656-6.7539-20.609l83.016-0.003907c8.4727 0 15.23-6.8711 15.23-15.23 0-25.305 20.496-45.801 45.801-45.801 8.4727 0 15.23-6.8711 15.23-15.23l-0.003906-244.34c0-8.4727-6.8711-15.23-15.23-15.23-25.305 0-45.801-20.496-45.801-45.801 0-8.4727-6.8711-15.23-15.23-15.23l-458.01 0.003906c-8.4727 0-15.23 6.8711-15.23 15.23 0 25.305-20.496 45.801-45.801 45.801-8.4727 0-15.23 6.8711-15.23 15.23v244.23c0 8.4727 6.8711 15.23 15.23 15.23 25.305 0 45.801 20.496 45.801 45.801 0 8.4727 6.8711 15.23 15.23 15.23h83.129c-3.7773 5.9531-6.7539 12.594-6.7539 20.609 0 3.5508 0.57422 6.7539 1.6016 9.9609l-184.8-0.003906v-458.01h671.79l-0.003906 458.12z" fill="#fff"/>
  <path d="m650.27 665.5-65.609 65.609-19.809-19.809c-5.9531-5.9531-15.574-5.9531-21.641 0-5.9531 5.9531-5.9531 15.574 0 21.641l30.57 30.57c2.9766 2.9766 6.8711 4.4648 10.762 4.4648 3.8945 0 7.7852-1.4883 10.762-4.4648l76.371-76.371c5.9531-5.9531 5.9531-15.574 0-21.641-5.7227-5.9531-15.453-5.9531-21.406 0z" fill="#fff"/>
 </g>
</svg>
