<svg xmlns="http://www.w3.org/2000/svg" xmlns:xlink="http://www.w3.org/1999/xlink" width="40" height="40" viewBox="0 0 100 100">
  <circle stroke="none" fill="#8d4e00" r="48%" cx="50%" cy="50%"></circle>
  <g transform="translate(65 50) scale(0.9 0.9) rotate(0) translate(-48 -34)" style="fill:#ffffff">
      <g>
        <path d="M-0.2,2.5v59.9h65.5V2.5H-0.2z M63.8,4v6.2H1.3V4H63.8z M1.3,61V11.7h62.5V61H1.3z"></path>
        <rect x="53.1" y="6.4" width="1.5" height="1.5"></rect>
        <rect x="56.9" y="6.4" width="1.5" height="1.5"></rect>
        <rect x="49.3" y="6.4" width="1.5" height="1.5"></rect>
        <rect x="6.1" y="6.4" width="38.5" height="1.5"></rect>
        <path d="M45.9,46.1L44,43.3c0.6-1.1,1.1-2.3,1.4-3.5l3.3-0.6l0-5.3l-3.3-0.6c-0.3-1.2-0.8-2.4-1.5-3.5l1.9-2.8L42,23.2l-2.8,1.9   c-1.1-0.6-2.3-1.1-3.5-1.4l-0.6-3.3l-5.3,0l-0.6,3.3c-1.2,0.3-2.4,0.8-3.5,1.5l-2.8-1.9l-3.8,3.8l1.9,2.8c-0.6,1.1-1.1,2.3-1.4,3.5   L16.3,34l0,5.3l3.3,0.6c0.3,1.2,0.8,2.4,1.5,3.5l-1.9,2.8L23,50l2.8-1.9c1.1,0.7,2.3,1.1,3.5,1.4l0.6,3.3l5.3,0l0.6-3.3   c1.2-0.3,2.4-0.8,3.5-1.5l2.8,1.9L45.9,46.1z M39.4,46.2l-0.4,0.3c-1.2,0.8-2.5,1.3-3.9,1.6l-0.5,0.1L34,51.3l-2.8,0l-0.6-3.1   l-0.5-0.1c-1.4-0.3-2.7-0.8-3.9-1.6l-0.4-0.3L23.2,48l-2-2l1.8-2.6L22.6,43c-0.8-1.2-1.3-2.5-1.6-3.9l-0.1-0.5l-3.1-0.5l0-2.8   l3.1-0.6l0.1-0.5c0.3-1.4,0.8-2.7,1.6-3.9l0.3-0.4L21,27.2l2-2l2.6,1.8l0.4-0.3c1.2-0.8,2.5-1.3,3.9-1.6l0.5-0.1l0.5-3.1l2.8,0   l0.6,3.1l0.5,0.1c1.4,0.3,2.7,0.8,3.9,1.6l0.4,0.3l2.6-1.8l2,2l-1.8,2.6l0.3,0.4c0.8,1.2,1.3,2.5,1.6,3.9l0.1,0.5l3.1,0.5l0,2.8   l-3.1,0.6L44,39c-0.3,1.4-0.8,2.7-1.6,3.9l-0.3,0.4l1.8,2.6l-2,2L39.4,46.2z"></path>
        <path d="M32.5,29.4c-3.9,0-7.1,3.2-7.1,7.2c0,3.9,3.2,7.1,7.1,7.1h0c3.9,0,7.1-3.2,7.1-7.2C39.6,32.6,36.4,29.4,32.5,29.4z    M32.5,42.2l0,0.8L32.5,42.2c-3.1,0-5.7-2.5-5.7-5.6c0-3.1,2.5-5.7,5.6-5.7c3.1,0,5.6,2.5,5.6,5.6C38.2,39.6,35.6,42.2,32.5,42.2z"></path>
        <polygon points="11.3,18.1 23.5,18.1 23.5,16.6 9.8,16.6 9.8,26.9 11.3,26.9  "></polygon>
        <polygon points="11.3,46.2 9.8,46.2 9.8,56.6 23.5,56.6 23.5,55.1 11.3,55.1  "></polygon>
        <polygon points="53.7,55.1 41.5,55.1 41.5,56.6 55.2,56.6 55.2,46.2 53.7,46.2  "></polygon>
        <polygon points="41.5,18.1 53.7,18.1 53.7,26.9 55.2,26.9 55.2,16.6 41.5,16.6  "></polygon>
      </g>
  </g>
</svg>